<?xml version="1.0" encoding="UTF-8" standalone="no"?>
<!-- Created with Inkscape (http://www.inkscape.org/) -->

<svg
   width="4mm"
   height="2.5999999mm"
   viewBox="0 0 4 2.5999999"
   version="1.1"
   id="svg186"
   inkscape:version="1.2.1 (9c6d41e410, 2022-07-14)"
   sodipodi:docname="cd_on.svg"
   xmlns:inkscape="http://www.inkscape.org/namespaces/inkscape"
   xmlns:sodipodi="http://sodipodi.sourceforge.net/DTD/sodipodi-0.dtd"
   xmlns="http://www.w3.org/2000/svg"
   xmlns:svg="http://www.w3.org/2000/svg">
  <sodipodi:namedview
     id="namedview188"
     pagecolor="#ffffff"
     bordercolor="#666666"
     borderopacity="1.0"
     inkscape:showpageshadow="2"
     inkscape:pageopacity="0.0"
     inkscape:pagecheckerboard="0"
     inkscape:deskcolor="#d1d1d1"
     inkscape:document-units="mm"
     showgrid="false"
     inkscape:zoom="71.790278"
     inkscape:cx="6.9090135"
     inkscape:cy="4.7778057"
     inkscape:window-width="1920"
     inkscape:window-height="1017"
     inkscape:window-x="1272"
     inkscape:window-y="-8"
     inkscape:window-maximized="1"
     inkscape:current-layer="layer3" />
  <defs
     id="defs183" />
  <g
     inkscape:groupmode="layer"
     id="layer3"
     inkscape:label="pruebas_on"
     style="display:inline">
    <path
       id="path1425"
       d="m 1.0604004,0.13952637 c -0.0837158,0 -0.16226408,0.010852 -0.23564454,0.0325561 -0.0723469,0.0206706 -0.13900967,0.050643 -0.19998779,0.089917 C 0.55655524,0.30850825 0.49557693,0.36535245 0.4418335,0.43253174 0.38809006,0.49971103 0.34468177,0.5761923 0.31160889,0.6619751 0.28267012,0.73225497 0.26096597,0.80873625 0.24649658,0.89141846 0.2320272,0.97306712 0.22479248,1.0593669 0.22479248,1.1503174 v 0.3038574 c 0,0.097152 0.007751,0.1891358 0.0232544,0.2759522 0.0165365,0.086816 0.0397909,0.1663981 0.0697632,0.2387451 0.0310058,0.072347 0.0687297,0.1384929 0.11317139,0.1984375 0.0454752,0.059945 0.0971518,0.1111043 0.15502929,0.153479 0.0630452,0.045475 0.13384206,0.080615 0.21239014,0.1054199 0.0795816,0.023771 0.16588143,0.035657 0.2588989,0.035657 0.1178222,0 0.2253094,-0.017053 0.3224609,-0.05116 0.097152,-0.03514 0.1808676,-0.084749 0.2511475,-0.1488282 0.07028,-0.064079 0.1260906,-0.1415934 0.1674316,-0.2325439 0.042375,-0.09095 0.067179,-0.1932701 0.074414,-0.306958 H 1.4371216 c -0.00413,0.068213 -0.015502,0.1266073 -0.034107,0.1751831 -0.018603,0.048576 -0.043925,0.088367 -0.075964,0.1193726 -0.032039,0.031006 -0.070797,0.053743 -0.116272,0.068213 -0.045475,0.014469 -0.096635,0.021704 -0.153479,0.021704 -0.042375,0 -0.081132,-0.00465 -0.11627197,-0.013953 -0.0341063,-0.010335 -0.0651123,-0.025838 -0.0930176,-0.046509 -0.0258382,-0.018603 -0.0490926,-0.041858 -0.0697632,-0.069763 -0.019637,-0.027905 -0.0366903,-0.059945 -0.0511597,-0.096118 -0.0206706,-0.05271 -0.0361735,-0.114205 -0.0465088,-0.1844849 -0.009302,-0.071313 -0.0139526,-0.1519288 -0.0139526,-0.2418457 v -0.306958 c 0,-0.066146 0.0031,-0.127641 0.009302,-0.18448487 0.006201,-0.0578775 0.0160199,-0.11058761 0.0294556,-0.15812988 0.01757,-0.0609781 0.0408244,-0.11420497 0.0697632,-0.15968018 0.0299723,-0.0465087 0.0661459,-0.0821656 0.10852051,-0.10697021 0.0248046,-0.0144694 0.0516765,-0.0253214 0.0806152,-0.0325562 0.0299723,-0.007235 0.0620118,-0.0108521 0.0961182,-0.0108521 0.064079,0 0.1188558,0.008785 0.164331,0.026355 0.046509,0.0165365 0.085266,0.0413412 0.116272,0.0744141 0.029973,0.0341064 0.05271,0.0764812 0.068213,0.12712402 0.016537,0.0506429 0.026872,0.10955414 0.031006,0.1767334 h 0.434082 C 1.8639689,0.7813478 1.8391642,0.67541088 1.7998901,0.58135986 1.7606161,0.48730886 1.7068725,0.40772699 1.6386597,0.34261475 1.5704469,0.2775025 1.4877644,0.22737627 1.3906128,0.19223633 c -0.096118,-0.03514 -0.2061891,-0.05271 -0.3302124,-0.05271 z M 2.201416,0.17208252 V 2.4293091 h 0.6061646 c 0.1002521,0 0.1943034,-0.012402 0.2821533,-0.037207 0.088883,-0.024805 0.1700155,-0.060461 0.243396,-0.1069703 0.063045,-0.039274 0.120923,-0.08785 0.1736328,-0.1457275 0.05271,-0.058911 0.098702,-0.1229902 0.1379761,-0.1922363 0.041341,-0.077515 0.073381,-0.1627809 0.096118,-0.2557984 0.022737,-0.093017 0.034107,-0.1917196 0.034107,-0.2961059 V 1.2092285 c 0,-0.1085203 -0.012402,-0.21083991 -0.037207,-0.30695799 C 3.7139856,0.80615244 3.6798787,0.71830233 3.635437,0.6387207 3.5971964,0.57360847 3.5522379,0.51366368 3.5005615,0.45888672 3.4499186,0.40307623 3.3920409,0.35605058 3.3269287,0.31781006 3.2525147,0.27130132 3.1698323,0.23564451 3.0788818,0.21083984 2.9879314,0.18500166 2.8902628,0.17208252 2.7858765,0.17208252 Z m 0.4387329,0.3534668 h 0.1457276 c 0.05271,0 0.1012858,0.006201 0.1457275,0.0186035 0.045475,0.0113688 0.086816,0.0279053 0.1240234,0.0496094 0.048576,0.0289388 0.090951,0.0661459 0.1271241,0.11162109 0.037207,0.0454752 0.06718,0.0971518 0.089917,0.1550293 0.018603,0.0485758 0.032556,0.10231941 0.041858,0.16123049 0.010335,0.057877 0.015503,0.1193723 0.015503,0.1844848 v 0.1891358 c 0,0.069246 -0.00517,0.133842 -0.015503,0.1937866 -0.0093,0.058911 -0.023255,0.1126548 -0.041858,0.1612305 -0.022737,0.055811 -0.050126,0.1049033 -0.082166,0.1472778 -0.031006,0.041341 -0.066146,0.075448 -0.1054199,0.1023193 -0.038241,0.025838 -0.080615,0.045475 -0.127124,0.058911 -0.046509,0.013436 -0.096635,0.020154 -0.1503784,0.020154 H 2.6401489 Z"
       inkscape:label="cd_on"
       style="font-weight:bold;font-size:3.175px;line-height:1.25;font-family:'Roboto Mono';-inkscape-font-specification:'Roboto Mono, Bold';text-align:center;letter-spacing:0px;word-spacing:0px;text-anchor:middle;display:inline;fill:#2d3440;stroke-width:0" />
  </g>
</svg>
