<?xml version="1.0" encoding="UTF-8" standalone="no"?>
<!-- Created with Inkscape (http://www.inkscape.org/) -->

<svg
   width="128"
   height="128"
   viewBox="0 0 33.866666 33.866666"
   version="1.1"
   id="svg1234"
   inkscape:version="1.2.1 (9c6d41e410, 2022-07-14)"
   sodipodi:docname="d0_off.svg"
   xmlns:inkscape="http://www.inkscape.org/namespaces/inkscape"
   xmlns:sodipodi="http://sodipodi.sourceforge.net/DTD/sodipodi-0.dtd"
   xmlns="http://www.w3.org/2000/svg"
   xmlns:svg="http://www.w3.org/2000/svg">
  <sodipodi:namedview
     id="namedview1236"
     pagecolor="#ffffff"
     bordercolor="#666666"
     borderopacity="1.0"
     inkscape:showpageshadow="2"
     inkscape:pageopacity="0.0"
     inkscape:pagecheckerboard="0"
     inkscape:deskcolor="#d1d1d1"
     inkscape:document-units="mm"
     showgrid="false"
     inkscape:zoom="6.359375"
     inkscape:cx="45.287469"
     inkscape:cy="64"
     inkscape:window-width="1920"
     inkscape:window-height="1177"
     inkscape:window-x="-8"
     inkscape:window-y="-8"
     inkscape:window-maximized="1"
     inkscape:current-layer="layer2" />
  <defs
     id="defs1231" />
  <g
     inkscape:groupmode="layer"
     id="layer2"
     inkscape:label="Marco"
     style="display:inline"
     sodipodi:insensitive="true">
    <path
       id="path3984"
       style="display:inline;fill:#2d3440;fill-opacity:1;stroke-width:0.0116291"
       inkscape:label="marco_off"
       d="m 1.3229167,0.26458333 c -0.00524,0 -0.010283,9.5842e-4 -0.015503,0.001034 -0.018812,0.0337277 -0.043909,0.0667917 -0.077515,0.10076904 -7.103e-4,7.294e-4 -0.00134,0.001874 -0.00207,0.002584 -0.01657,0.01673 -0.033172,0.0305242 -0.049609,0.0434082 -0.1201534,0.0928139 -0.23879605,0.0896013 -0.3844727,0.0847494 -0.0425558,-0.00142 -0.0865801,-0.002426 -0.13125814,-0.00155 C 0.41988188,0.68918394 0.26458333,0.98699424 0.26458333,1.3229167 V 1.9290812 C 0.3681501,1.7617662 0.364714,1.5901977 0.35966797,1.4355713 0.35417997,1.2672378 0.34996707,1.1351962 0.48834229,0.99528809 c 7.9641e-4,-7.872e-4 0.001342,-0.001347 0.002067,-0.002067 0.0165343,-0.016579 0.0331367,-0.031265 0.0496094,-0.043925 0.12012128,-0.0928209 0.2387748,-0.0895753 0.38447265,-0.0847493 0.18962796,0.00636 0.40480636,0.0139377 0.60616456,-0.1896525 l -5.167e-4,-5.1677e-4 c 7.991e-4,-7.844e-4 0.00186,-0.001357 0.00258,-0.002067 C 1.6651145,0.53840468 1.7036156,0.39916212 1.715137,0.26458347 Z m 1.0733195,0 C 2.2406585,0.45363042 2.2447637,0.65156648 2.2505086,0.82785645 c 0.00549,0.16833353 0.00967,0.30091435 -0.1286743,0.44079995 -7.963e-4,7.873e-4 -0.00134,0.00135 -0.00207,0.00207 -0.01657,0.016731 -0.033173,0.030524 -0.049609,0.043408 -0.0069,0.00533 -0.013775,0.00769 -0.020671,0.012402 0.022264,-0.00186 0.044419,-0.00362 0.067179,-0.00362 H 2.5745199 C 2.6142956,1.1990348 2.6159607,1.0757986 2.6122437,0.9616984 2.6067537,0.79336577 2.6025695,0.66026663 2.740918,0.52038167 2.8792915,0.38046641 3.0110674,0.38515423 3.1775838,0.39067383 3.344619,0.39626986 3.5307107,0.402284 3.7103678,0.26458333 Z m 2.1037475,0 c 2.494e-4,0.0304614 7.64e-5,0.0615618 0.00103,0.0909505 0.00546,0.16836214 0.0097,0.30088851 -0.1286744,0.44079997 C 4.233995,0.93621838 4.1026813,0.93210513 3.9361938,0.92655843 3.7466038,0.92024504 3.5313885,0.91313564 3.3300293,1.1167277 3.2630363,1.1844659 3.2247156,1.2535444 3.1961873,1.3229167 H 3.786849 c 0.087424,-0.033031 0.1779878,-0.034477 0.28267,-0.031006 0.1895889,0.00631 0.4038028,0.01391 0.6051311,-0.1896525 C 4.8760125,0.89866643 4.8694877,0.68109442 4.863269,0.48937571 4.860599,0.40755121 4.858919,0.33456914 4.873089,0.26458323 Z m 2.1698934,0 C 6.656382,0.28266198 6.6465532,0.30062619 6.628536,0.31884359 6.4903059,0.45875845 6.3588773,0.45461939 6.1923869,0.4490682 6.0027974,0.44285419 5.7874709,0.43545683 5.5862223,0.6387207 c -0.00175,0.001696 -0.00393,0.00387 -0.00568,0.005684 -0.201357,0.2035883 -0.19383,0.421191 -0.1875854,0.6128825 7.44e-4,0.022943 6.932e-4,0.043893 0.00103,0.065629 H 5.7593384 C 5.7578445,1.1887405 5.7718989,1.0739423 5.8890462,0.95549723 6.0274216,0.81557947 6.1586826,0.81975103 6.3251953,0.82527262 c 0.1896284,0.00636 0.4048046,0.0139409 0.6061646,-0.1896525 v -5.1677e-4 c 0.00181,-0.00179 0.00338,-0.002841 0.00517,-0.004651 C 7.055091,0.5105647 7.0981084,0.38603667 7.1148112,0.26458333 Z m 1.0965739,0 C 7.6443862,0.44028075 7.6490038,0.62148704 7.6543132,0.78444824 7.659801,0.95278077 7.6645083,1.0858792 7.5261556,1.225765 7.4765066,1.275965 7.4271606,1.30332 7.3773275,1.322917 H 7.9633382 C 8.0194144,1.1846799 8.0207054,1.0464252 8.0165649,0.91932373 8.0110749,0.7509903 8.0063748,0.61789216 8.1447225,0.478007 8.2831032,0.33809904 8.4148717,0.34226259 8.5813883,0.34778239 c 0.1468793,0.004918 0.3089624,0.009181 0.4681885,-0.0831991 z m 2.1383708,0 c 4.053e-4,0.0159008 9.1e-6,0.0324756 5.167e-4,0.0480591 0.0055,0.16836243 0.00972,0.30140627 -0.1286743,0.44131673 C 9.6383144,0.89384631 9.5064888,0.88973495 9.3399984,0.88418376 9.1504359,0.87784326 8.9357091,0.87076156 8.7343506,1.074353 8.653701,1.1558995 8.6121912,1.239538 8.5850057,1.3229167 h 0.5245158 c 0.1130002,-0.076692 0.2267997,-0.077403 0.3638021,-0.072864 0.189586,0.00632 0.4043153,0.013397 0.6056474,-0.1901693 0.20136,-0.20358944 0.194322,-0.42116635 0.188103,-0.61288246 -0.0021,-0.0657686 -0.0015,-0.1248632 0.0052,-0.18241781 z m 2.1357872,0 c -0.0048,0.0052 -0.0067,0.0102861 -0.01189,0.0155029 -0.138351,0.13988576 -0.269654,0.13577321 -0.436149,0.13022461 -0.189675,-0.00623 -0.404833,-0.0133961 -0.606164,0.19016927 -5.62e-4,5.624e-4 -9.51e-4,9.803e-4 -0.0016,0.00155 -0.201359,0.20358869 -0.194345,0.42067309 -0.188102,0.61236579 0.0013,0.03792 0.0026,0.073701 0.0021,0.1085205 h 0.364836 c -0.0044,-0.1533146 2.97e-4,-0.2789298 0.129708,-0.40979417 0.138377,-0.13990566 0.269119,-0.13574311 0.435632,-0.13022461 0.189627,0.00635 0.404807,0.0139377 0.606164,-0.18965251 5.06e-4,-5.075e-4 0.0011,-0.00105 0.0016,-0.00155 0.105909,-0.10708767 0.15316,-0.21808114 0.174149,-0.32711182 z m 1.101741,0 C 13.04584,0.42818345 13.04958,0.5951009 13.0545,0.74620768 13.06,0.91454171 13.06468,1.0476405 12.926343,1.1875244 c -0.138352,0.1398863 -0.270176,0.1352545 -0.436666,0.1297079 -0.06643,-0.0022 -0.136772,-0.00101 -0.207739,0.00568 h 1.067635 c 0.07433,-0.1510124 0.07119,-0.3033506 0.06666,-0.44235029 -0.0055,-0.16833914 -0.0096,-0.30091431 0.128675,-0.44079997 0.138375,-0.13990976 0.269634,-0.13574531 0.436149,-0.13022461 0.118282,0.003961 0.246571,0.001754 0.375171,-0.0449585 z m 2.163176,0 c 9.7e-5,0.003018 -9.8e-5,0.006296 0,0.009302 0.0055,0.16836283 0.01018,0.30140437 -0.128158,0.44131673 -0.13835,0.13988376 -0.270696,0.13525724 -0.437182,0.12970785 -0.189593,-0.00632 -0.404292,-0.0134202 -0.605648,0.19016919 -0.09318,0.094213 -0.138692,0.1916958 -0.163298,0.2878378 h 0.489376 c 0.129772,-0.1166824 0.255451,-0.1173398 0.412378,-0.1121379 0.18959,0.00632 0.404833,0.013912 0.606165,-0.1896525 0.201359,-0.20359272 0.19432,-0.42116434 0.188102,-0.61288244 -0.0017,-0.0509317 -0.002,-0.0980917 5.17e-4,-0.14366049 z m 2.090311,0 C 17.27036,0.37019139 17.14729,0.37144856 16.995345,0.3663859 c -0.189726,-0.00626 -0.404317,-0.0133938 -0.605648,0.19016928 -0.0018,0.00179 -0.0034,0.003358 -0.0052,0.005168 -0.20136,0.2035935 -0.194384,0.42063144 -0.188103,0.61236572 0.0017,0.05286 0.0013,0.101596 -0.0015,0.1488282 h 0.363802 c -1.34e-4,-0.00421 1.36e-4,-0.00873 0,-0.012919 -0.0055,-0.168332 -0.0097,-0.3008887 0.128675,-0.44080005 0.138375,-0.13990986 0.269594,-0.13630237 0.436149,-0.13074137 0.18959,0.00632 0.404806,0.0139374 0.606164,-0.18965251 v -5.1676e-4 c 0.0018,-0.00179 0.0034,-0.002831 0.0052,-0.004651 0.09034,-0.0913429 0.13491,-0.18566918 0.160197,-0.27905274 z m 1.119829,0 c -0.06937,0.14772826 -0.06747,0.29655604 -0.06305,0.43253174 0.0055,0.16833363 0.0097,0.30091324 -0.128674,0.44079993 -0.138351,0.1398841 -0.270177,0.1357724 -0.436666,0.1302246 -0.126684,-0.0042 -0.264306,-0.00328 -0.402042,0.054777 h 1.23455 c 0.102482,-0.1666902 0.09907,-0.3374177 0.09405,-0.4914429 -0.0055,-0.16831784 -0.0097,-0.30143268 0.128674,-0.44131674 0.0873,-0.0882692 0.172819,-0.11626462 0.2651,-0.12557373 z m 2.18798,0 c 0.0039,0.14937634 -0.0023,0.27317365 -0.129191,0.40152588 -0.138397,0.13991876 -0.269659,0.13577141 -0.436149,0.13022461 -0.189569,-0.00634 -0.404808,-0.0139377 -0.606165,0.18965251 C 19.423025,1.0963126 19.37691,1.2107059 19.356958,1.3229167 h 0.454236 c 0.0087,-0.010293 0.01302,-0.020655 0.02325,-0.031006 0.138375,-0.1399105 0.269633,-0.1352266 0.436149,-0.1297078 0.189584,0.00632 0.404317,0.013394 0.605648,-0.19016931 0.201361,-0.2035934 0.19432,-0.42116718 0.188102,-0.61288249 -0.0011,-0.0330516 -0.0011,-0.0639191 -0.001,-0.0945679 z m 2.030367,0 c -0.106574,0.0639646 -0.21444,0.0621807 -0.343648,0.0578776 -0.189581,-0.00632 -0.404832,-0.0139131 -0.606165,0.1896525 v 5.1677e-4 l -0.0015,0.00155 C 21.581266,0.71779 21.588299,0.93537371 21.594548,1.127063 c 0.0023,0.070859 0.0025,0.1343707 -0.0062,0.1958537 h 0.374138 c -4.33e-4,-0.018637 7.7e-5,-0.038121 -5.17e-4,-0.056327 -0.0055,-0.1683326 -0.0097,-0.30140452 0.128674,-0.44131678 0.138377,-0.13991096 0.269637,-0.13522794 0.436149,-0.12970784 0.18963,0.00636 0.404806,0.0134209 0.606165,-0.19016927 5.62e-4,-5.637e-4 10e-4,-5.2783e-4 0.0016,-0.001034 0.07766,-0.078516 0.118099,-0.15938446 0.145728,-0.23977865 z m 1.168404,0 c -0.05207,0.13489937 -0.05365,0.26967609 -0.04961,0.39377442 0.0055,0.16833503 0.0091,0.3014298 -0.129191,0.44131675 -0.138351,0.1398856 -0.269663,0.1352517 -0.43615,0.1297078 -0.151595,-0.00503 -0.319106,-0.00848 -0.483174,0.093534 h 1.291911 c 0.129111,-0.1788809 0.12323,-0.36423431 0.117822,-0.53020023 -0.0055,-0.16833793 -0.0092,-0.30091301 0.129191,-0.44079997 0.04092,-0.0413779 0.08121,-0.0674787 0.121956,-0.0873332 z m 2.201933,0 C 26.10545,0.39693369 26.09058,0.51010784 25.974642,0.62735189 25.83625,0.76726055 25.704979,0.76311739 25.538493,0.7575765 25.34891,0.7512465 25.133685,0.74415727 24.932328,0.94774577 24.810553,1.07087 24.769071,1.1983642 24.753528,1.3229167 h 0.428397 c 0.01582,-0.023154 0.02961,-0.046412 0.05271,-0.069763 0.138373,-0.1399123 0.26963,-0.135233 0.43615,-0.1297079 0.189587,0.00632 0.404833,0.013393 0.606164,-0.19016923 0.201362,-0.2035892 0.193802,-0.42116548 0.187586,-0.61288249 -6.38e-4,-0.0195052 -1.42e-4,-0.037194 -5.17e-4,-0.0558106 z m 1.932698,0 c -0.07519,0.0194976 -0.154083,0.0189765 -0.242879,0.0160197 -0.189526,-0.00635 -0.404316,-0.0139119 -0.605648,0.1896525 v 5.1677e-4 c -0.0018,0.00179 -0.0034,0.002831 -0.0052,0.004651 -0.201362,0.20358929 -0.194346,0.42119231 -0.188103,0.6128825 0.0028,0.085401 0.005,0.1619557 -0.01137,0.234611 h 0.379305 c -1.91e-4,-0.031895 -5.48e-4,-0.064349 -0.0016,-0.095085 -0.0055,-0.1683329 -0.0092,-0.30140282 0.129191,-0.44131668 0.138375,-0.13991296 0.269637,-0.1357461 0.43615,-0.13022461 0.189628,0.00636 0.404805,0.0139379 0.606164,-0.18965251 0.0018,-0.00179 0.0034,-0.003388 0.0052,-0.005168 0.06386,-0.0645686 0.102156,-0.13077579 0.130741,-0.19688721 z m 1.253154,0 c -0.03664,0.12055678 -0.03773,0.24031894 -0.03411,0.35139974 0.0055,0.16833363 0.0102,0.3014311 -0.128157,0.44131673 -0.13835,0.1398869 -0.270695,0.1352553 -0.437183,0.1297078 -0.170116,-0.00564 -0.359874,-0.00991 -0.542602,0.1359091 h 1.316715 c 0.163516,-0.1917735 0.159318,-0.39342774 0.153479,-0.5725749 -0.0055,-0.16833223 -0.0097,-0.30091441 0.128674,-0.44079997 0.01945,-0.0196654 0.03858,-0.030593 0.05788,-0.0449585 z m 2.218469,0 c -0.0029,0.11477234 -0.02661,0.21613782 -0.130225,0.32091065 -0.138349,0.13988626 -0.270177,0.13525384 -0.436665,0.12970784 -0.189588,-0.00632 -0.404291,-0.0134187 -0.605648,0.19016927 -0.13562,0.13712861 -0.173418,0.28004961 -0.183968,0.41754561 h 0.404626 c 0.0193,-0.037305 0.04456,-0.074118 0.08165,-0.1116211 0.138381,-0.139908 0.270153,-0.1357431 0.436666,-0.1302246 0.18959,0.00632 0.404315,0.013395 0.605648,-0.19016931 0.201359,-0.20358999 0.194324,-0.42116628 0.188102,-0.61288248 -1.54e-4,-0.004715 1.49e-4,-0.008775 0,-0.0134359 z m 1.28726,0.0310059 c -0.07033,0.0288118 -0.140578,0.0679864 -0.20929,0.13745931 -0.201358,0.2035908 -0.194349,0.42067485 -0.188102,0.61236566 0.0055,0.1683626 0.01022,0.3014052 -0.128157,0.4413168 -0.0063,0.00632 -0.01237,0.00872 -0.0186,0.014469 0.113368,0.09242 0.200128,0.215577 0.248564,0.3570841 0.02468,-0.018825 0.04903,-0.040496 0.07338,-0.065112 0.201361,-0.20359 0.194361,-0.4211258 0.188103,-0.6128825 -0.0055,-0.1683343 -0.0097,-0.30037509 0.128674,-0.44028315 C 33.028274,0.60069818 33.15909,0.60378068 33.324581,0.60926514 33.185574,0.45716277 33.003234,0.34598773 32.795931,0.29558923 Z m 0.802018,0.94567867 c -0.03978,0.025155 -0.07931,0.055106 -0.118339,0.094568 -0.201361,0.2035907 -0.194348,0.4211923 -0.188102,0.6128825 0.0055,0.168361 0.0097,0.3008884 -0.128674,0.4407999 -0.13835,0.1398856 -0.269664,0.1357677 -0.436149,0.1302246 -0.05881,-0.00196 -0.120386,-0.00158 -0.182935,0.00258 v 0.4066935 c 0.09784,-0.048355 0.198148,-0.04784 0.31626,-0.043925 0.18963,0.00636 0.404313,0.013395 0.605648,-0.1901693 0.06917,-0.069933 0.107955,-0.1413341 0.136425,-0.2129069 V 1.3229167 c 0,-0.027568 -0.0021,-0.054623 -0.0041,-0.081649 z M 1.5394409,1.3973307 c -0.1499382,0.00482 -0.3089228,0.03853 -0.4599202,0.1912028 l 5.167e-4,5.168e-4 c -7.997e-4,7.838e-4 -0.00194,0.00142 -0.00258,0.00207 -0.20135606,0.2035875 -0.19383023,0.4206755 -0.18758544,0.6123657 0.005457,0.1683616 0.009701,0.3008891 -0.12867431,0.4407999 -0.13835126,0.1398872 -0.2701727,0.1362953 -0.43666586,0.1307414 -0.0194284,-6.456e-4 -0.0400216,-7.72e-5 -0.0599447,-5.168e-4 v 0.3725871 c 0.0605139,-0.00861 0.12356549,-0.00903 0.19326986,-0.00672 0.18963016,0.00635 0.40431452,0.013397 0.60564785,-0.1901693 C 1.2648641,2.7466175 1.2578275,2.5295589 1.251607,2.3378426 1.246787,2.1901876 1.248527,2.0694346 1.341007,1.9476855 1.393317,1.7049588 1.5562527,1.5044997 1.7745723,1.4004321 c -0.028839,6.9e-6 -0.057874,-5.179e-4 -0.088884,-0.00155 -0.047397,-0.00158 -0.096265,-0.00316 -0.1462443,-0.00155 z M 33.472375,3.4199463 c -0.149942,0.00482 -0.308901,0.038511 -0.45992,0.1912028 -0.201329,0.2035674 -0.194348,0.4211908 -0.188102,0.6128825 0.0055,0.1683327 0.0096,0.3009115 -0.128674,0.4407999 -0.05084,0.051406 -0.10089,0.079085 -0.151929,0.098702 v 0.403593 c 0.146932,-0.00598 0.301297,-0.041277 0.449068,-0.1906861 0.0018,-0.00179 0.0038,-0.00379 0.0057,-0.00568 0.201324,-0.203577 0.194348,-0.4206741 0.188102,-0.6123657 -0.0055,-0.168335 -0.0097,-0.301432 0.128674,-0.4413167 0.09415,-0.095197 0.185816,-0.1214347 0.286804,-0.1281576 V 3.4214966 c -0.04235,-0.00137 -0.08538,-0.00297 -0.129708,-0.00155 z M 1.0702189,3.6747111 C 0.92027753,3.6795282 0.76131746,3.7137368 0.61029867,3.8664307 0.40896989,4.0699986 0.41646711,4.2876216 0.42271322,4.4793132 c 0.005488,0.1683334 0.009677,0.3009141 -0.12867432,0.4407999 -0.009843,0.00995 -0.0196687,0.01419 -0.0294556,0.022738 V 5.4074219 C 0.37334645,5.386556 0.48365251,5.3399179 0.59066162,5.231722 v -5.168e-4 c 0.001811,-0.00179 0.003821,-0.00329 0.005684,-0.00517 C 0.79771427,5.0224441 0.79069374,4.8048445 0.78444824,4.6131551 0.77895975,4.4448217 0.7747714,4.3122411 0.91312256,4.1723551 1.0438261,4.0401956 1.1691753,4.0369453 1.3229167,4.0416138 V 3.6783285 c -0.034229,5.145e-4 -0.069172,-8.237e-4 -0.1064535,-0.00207 -0.0474,-0.00158 -0.096264,-0.00316 -0.1462443,-0.00155 z m 0.2526978,1.4676107 c -0.010349,0.081833 -0.011265,0.1625854 -0.00879,0.2387451 0.00549,0.1683326 0.010189,0.3009134 -0.1281576,0.4408 C 1.0476238,5.9617534 0.9157998,5.9576409 0.74930827,5.9520915 0.59740728,5.9470608 0.4290234,5.9430605 0.26458333,6.0456258 V 7.3039469 C 0.32066569,7.1657541 0.321442,7.0269826 0.31729329,6.8998372 0.31180648,6.7315027 0.30759052,6.5984323 0.44596761,6.4585205 0.58434491,6.3186149 0.71611713,6.3232918 0.88263346,6.3288127 1.0209057,6.3334502 1.1727503,6.3360582 1.3229167,6.2595662 Z M 33.602083,5.547465 c -0.0058,0.00638 -0.0081,0.012712 -0.01447,0.01912 -0.138344,0.1398941 -0.269654,0.1357771 -0.436149,0.1302246 -0.189627,-0.00627 -0.404833,-0.013396 -0.606165,0.1901693 -5.4e-4,5.37e-4 -10e-4,0.00107 -0.0015,0.00155 v 1.354956 c 0.187716,-0.1995888 0.181819,-0.4115004 0.1757,-0.5989298 -0.0055,-0.1683323 -0.0097,-0.301403 0.128674,-0.4413168 0.138375,-0.1399151 0.270156,-0.1352286 0.436666,-0.1297078 0.100505,0.00337 0.208308,0.00439 0.317293,-0.023254 z m 0,1.1280965 c -0.05346,0.028191 -0.106835,0.06543 -0.159163,0.1183391 -0.0018,0.00179 -0.0033,0.00335 -0.0052,0.00517 -0.20136,0.2035891 -0.194864,0.4206734 -0.188619,0.6123657 0.0055,0.1683611 0.01018,0.3019227 -0.128157,0.4418335 -0.138357,0.1398776 -0.270184,0.1347277 -0.436666,0.1291911 -0.04556,-0.00152 -0.09264,-0.0029 -0.14056,-0.00155 v 0.3958415 c 0.08468,-0.029586 0.172679,-0.030748 0.273885,-0.027388 0.18963,0.00636 0.404316,0.013395 0.605648,-0.1901693 0.119937,-0.1212661 0.162594,-0.2467276 0.1788,-0.3694865 z M 1.3229167,6.8848511 c -0.094337,0.025187 -0.1897256,0.070878 -0.2821534,0.164331 -0.00181,0.00179 -0.0029,0.00384 -0.00465,0.00568 C 0.8349046,7.2583324 0.841249,7.4750228 0.84749349,7.6667155 0.85295048,7.8350783 0.8577167,7.9686374 0.71933594,8.108549 0.58123757,8.2482894 0.44967469,8.2432829 0.28318685,8.2377401 c -0.006029,-2.01e-4 -0.0125255,1.951e-4 -0.0186035,0 V 8.606193 c 0.0477178,-0.00321 0.0972856,-0.00333 0.15089519,-0.00155 0.18962897,0.00635 0.40483388,0.013394 0.60616456,-0.1901692 0.20136,-0.20359 0.1938037,-0.4211639 0.1875854,-0.6128825 -0.00523,-0.160396 -0.00565,-0.2888959 0.1136882,-0.4216797 z M 33.430001,8.8831787 c -0.149867,0.00489 -0.308386,0.039028 -0.459404,0.1917196 -0.201329,0.2035682 -0.194351,0.4211927 -0.188102,0.6128825 0.0055,0.1683328 0.0096,0.3014306 -0.128674,0.4413162 -0.03682,0.03723 -0.07345,0.0632 -0.110071,0.08268 v 0.410827 c 0.135559,-0.01079 0.276248,-0.04944 0.411344,-0.186035 l -5.16e-4,-5.16e-4 c 5.64e-4,-5.62e-4 0.001,-5.8e-4 0.0016,-10e-4 0.201329,-0.203568 0.194347,-0.420674 0.188102,-0.6123658 -0.0055,-0.1683408 -0.0097,-0.3019496 0.128674,-0.4418334 0.107223,-0.1084171 0.210709,-0.1296277 0.329179,-0.1312582 V 8.8852458 c -0.0088,-2.72e-4 -0.01679,-2.156e-4 -0.02584,-5.168e-4 -0.0474,-0.00158 -0.09629,-0.00318 -0.146244,-0.00155 z M 1.0278442,9.1384603 C 0.87802013,9.1433213 0.71945865,9.1774877 0.56844076,9.3301799 0.36710918,9.5337436 0.37409222,9.7513725 0.38033854,9.9430623 c 0.00527,0.1614687 0.006043,0.2905437 -0.11575521,0.4242637 v 0.491443 c 0.0965733,-0.02457 0.19373377,-0.07176 0.2883545,-0.167432 5.5195e-4,-5.55e-4 0.001058,-5.73e-4 0.00155,-0.001 0.20133713,-0.20354 0.1943464,-0.421224 0.1881025,-0.612916 C 0.73711034,9.90908 0.73239312,9.7759892 0.87074788,9.6361043 1.0091232,9.4961935 1.1408996,9.5008755 1.3074137,9.5063965 c 0.00502,1.669e-4 0.010444,-1.641e-4 0.015503,0 V 9.1389771 c -0.047076,0.00303 -0.095508,0.00331 -0.1483114,0.00155 -0.047372,-0.0016 -0.09682,-0.00369 -0.1467611,-0.00207 z m 0.2950725,1.3094807 c -0.053112,0.13575 -0.054712,0.271994 -0.050643,0.396875 0.0054,0.168425 0.00968,0.301432 -0.1286744,0.441317 -0.1383519,0.139886 -0.26965851,0.135254 -0.43614904,0.129708 -0.13920251,-0.0046 -0.29178815,-0.0079 -0.44286703,0.07028 v 1.162203 c 0.0194733,-0.09913 0.0174616,-0.19666 0.0144694,-0.288355 -0.005486,-0.168335 -0.009186,-0.300889 0.12919109,-0.4408 0.13837867,-0.139912 0.26963445,-0.136262 0.43614908,-0.130741 0.15015979,0.005 0.3158806,0.009 0.4785238,-0.08992 z m 32.2791663,0.508496 c -0.0164,0.02473 -0.03169,0.04949 -0.05633,0.07441 -0.138357,0.139878 -0.269654,0.135778 -0.436149,0.130225 -0.177042,-0.0058 -0.376359,-0.01031 -0.565857,0.154512 v 1.344104 c 0.148191,-0.186362 0.143125,-0.380903 0.137459,-0.554488 -0.0055,-0.168333 -0.0092,-0.301407 0.129191,-0.441316 0.138374,-0.139916 0.269632,-0.135748 0.436149,-0.130225 0.112264,0.0037 0.233542,0.0023 0.355534,-0.03721 z m 0,1.166854 c -0.06761,0.0289 -0.13496,0.06808 -0.201021,0.134876 -5.63e-4,5.64e-4 -0.0011,0.0011 -0.0016,0.0015 -0.201358,0.203589 -0.194347,0.420677 -0.188102,0.612366 0.0055,0.168362 0.0097,0.301402 -0.128675,0.441316 -0.13835,0.139887 -0.269659,0.135254 -0.436149,0.129708 -0.03321,-0.0011 -0.06828,-10e-4 -0.102836,-10e-4 v 0.380338 c 0.07292,-0.01747 0.149189,-0.01577 0.235128,-0.01292 0.189629,0.0063 0.404833,0.01339 0.606164,-0.190169 0.201362,-0.203591 0.194325,-0.420647 0.188103,-0.612366 -0.0034,-0.104166 -0.0022,-0.194588 0.02894,-0.281637 z m -32.2791663,0.21394 c -0.1080038,0.0212 -0.2178612,0.06889 -0.32401126,0.176217 -5.513e-4,5.55e-4 -0.00106,5.34e-4 -0.00155,10e-4 -0.2013622,0.203593 -0.1943474,0.421193 -0.18810221,0.612882 0.00546,0.16836 0.009703,0.301405 -0.12867432,0.441317 -0.13248513,0.133955 -0.25932663,0.135224 -0.41599528,0.130224 v 0.363803 c 0.035889,-7.13e-4 0.0728616,2.48e-4 0.11213786,0.0015 0.18962818,0.0063 0.40483345,0.01392 0.60616455,-0.189653 0.20135976,-0.203592 0.19432136,-0.421163 0.18810226,-0.612882 -0.00549,-0.168335 -0.0097,-0.300889 0.1286743,-0.4408 0.00778,-0.0079 0.015516,-0.01111 0.023254,-0.01809 z m 32.0688433,2.00608 c -0.149867,0.0049 -0.308386,0.03903 -0.459403,0.191719 -0.201331,0.203568 -0.194347,0.420676 -0.188102,0.612366 0.0055,0.16834 0.01019,0.301429 -0.128158,0.441317 -0.02417,0.02444 -0.04836,0.03942 -0.07235,0.05581 v 0.436666 c 0.122478,-0.01598 0.247917,-0.05848 0.36897,-0.180868 0.0018,-0.0017 0.0034,-0.0035 0.0052,-0.0052 0.201323,-0.203575 0.194349,-0.42119 0.188103,-0.612883 -0.0055,-0.168334 -0.0097,-0.300916 0.128674,-0.4408 0.118372,-0.119689 0.232989,-0.133117 0.367419,-0.131258 v -0.364319 c -0.02119,-3.68e-4 -0.04173,-2.88e-4 -0.06408,-10e-4 -0.0474,-0.0016 -0.09629,-0.0032 -0.146245,-0.0015 z M 1.3229167,14.594458 c -0.058676,0.0075 -0.1192146,0.0079 -0.186552,0.0057 -0.18958933,-0.0063 -0.40480567,-0.01342 -0.6061645,0.19017 -0.20133124,0.203563 -0.19434746,0.420675 -0.18810222,0.612365 0.004606,0.141348 0.003212,0.258129 -0.0775147,0.374655 v 0.529166 c 0.0825558,-0.02748 0.16532618,-0.06934 0.24597982,-0.150895 v -5.17e-4 c 0.001821,-0.0018 0.003344,-0.0034 0.005168,-0.0052 0.20133721,-0.203568 0.19434781,-0.420675 0.18810222,-0.612366 -0.00549,-0.168336 -0.009156,-0.301433 0.12919108,-0.441317 0.13837676,-0.139912 0.2691178,-0.135743 0.4356323,-0.130224 0.017585,5.84e-4 0.036266,8.4e-5 0.05426,5.16e-4 z m 0,1.224215 c -0.09852,0.164668 -0.094903,0.332613 -0.089917,0.484725 0.00549,0.168335 0.00967,0.301947 -0.1286743,0.441833 -0.13835027,0.139884 -0.2696593,0.134739 -0.43614913,0.129191 -0.12700703,-0.0042 -0.26561661,-0.0033 -0.40359294,0.05529 v 0.596346 c 0.0195051,-0.04979 0.0464256,-0.09911 0.0956014,-0.148828 0.13837558,-0.139911 0.26959496,-0.135785 0.43614909,-0.130225 0.16474268,0.0055 0.34905578,0.01162 0.52658288,-0.120406 z m 32.2791663,0.522448 c -0.01947,0.04985 -0.0465,0.09918 -0.0956,0.148829 -0.138344,0.139893 -0.269655,0.135262 -0.436149,0.129707 -0.164805,-0.0055 -0.349133,-0.01166 -0.526583,0.120406 v 1.307931 c 0.09836,-0.164706 0.09485,-0.332664 0.08992,-0.484725 -0.0055,-0.168333 -0.0097,-0.30089 0.128674,-0.4408 0.138374,-0.139915 0.269593,-0.13631 0.436149,-0.130741 0.126957,0.0042 0.265523,0.0037 0.403593,-0.05478 z m 0,1.219047 c -0.08255,0.02747 -0.165336,0.06936 -0.245979,0.150896 v 5.16e-4 c -0.0018,0.0017 -0.0034,0.003 -0.0052,0.0047 -0.201359,0.20359 -0.194345,0.421191 -0.188102,0.612883 0.0055,0.168363 0.0097,0.301406 -0.128675,0.441317 -0.138343,0.139894 -0.269654,0.135774 -0.436149,0.130224 -0.01759,-5.84e-4 -0.03627,-8.3e-5 -0.05426,-5.17e-4 v 0.372587 c 0.05874,-0.0077 0.11964,-0.0079 0.187069,-0.0057 0.189628,0.0063 0.404319,0.01288 0.605647,-0.190686 0.201361,-0.203592 0.19432,-0.420647 0.188103,-0.612366 -0.0046,-0.141109 -0.0029,-0.257338 0.07751,-0.37362 z m -32.2791663,0.22531 c -0.1224205,0.016 -0.2479949,0.05855 -0.36896976,0.180867 l 5.1676e-4,5.17e-4 c -0.00182,0.0018 -0.003854,0.0034 -0.005684,0.0052 -0.2013639,0.203595 -0.19382905,0.42119 -0.18758545,0.612882 0.00547,0.168355 0.00919,0.300887 -0.12919108,0.4408 -0.11834902,0.119663 -0.23288639,0.133121 -0.36741944,0.131258 v 0.363802 c 0.0212757,3.49e-4 0.0416347,2.9e-4 0.0640788,0.001 0.18962867,0.0063 0.40431679,0.01339 0.60564779,-0.190169 0.20135878,-0.203593 0.19432068,-0.420646 0.18810218,-0.612366 -0.00549,-0.168335 -0.0097,-0.301405 0.1286743,-0.441317 0.024066,-0.02433 0.047958,-0.03945 0.07183,-0.05581 z m 32.0202673,2.015897 c -0.149941,0.0048 -0.308902,0.03851 -0.45992,0.191203 -0.201331,0.203568 -0.19383,0.421191 -0.187585,0.612883 0.0055,0.168334 0.0096,0.301432 -0.128675,0.441316 -0.0078,0.0079 -0.01547,0.01108 -0.02325,0.01809 v 0.464571 c 0.108148,-0.02116 0.217698,-0.06821 0.324011,-0.1757 5.02e-4,-5.04e-4 0.0011,-0.0011 0.0016,-0.0016 0.20133,-0.203568 0.194347,-0.420674 0.188102,-0.612366 -0.0055,-0.168336 -0.0097,-0.301429 0.128674,-0.441316 0.132386,-0.133847 0.259512,-0.135145 0.415995,-0.130225 v -0.363802 c -0.03609,7.35e-4 -0.0732,-2.35e-4 -0.112654,-0.0016 -0.0474,-0.0016 -0.09626,-0.0032 -0.146245,-0.0016 z m -32.0202673,0.24288 c -0.072926,0.01736 -0.1493769,0.01629 -0.2351278,0.01344 -0.18958838,-0.0063 -0.40480862,-0.01393 -0.60616455,0.189653 -0.20133068,0.20357 -0.19382983,0.421192 -0.18758545,0.612882 0.003414,0.104692 0.002119,0.195142 -0.0294556,0.282671 v 0.60048 c 0.0676156,-0.02891 0.13495163,-0.06756 0.20102132,-0.134359 5.0335e-4,-5.07e-4 0.001117,-0.0012 0.00155,-0.0016 0.20132923,-0.203568 0.19434501,-0.421192 0.18810221,-0.612883 -0.00549,-0.168333 -0.009674,-0.300913 0.12867432,-0.4408 0.13837736,-0.139905 0.27015025,-0.135744 0.43666585,-0.130224 0.033161,0.0011 0.067815,0.001 0.1023194,0.001 z m 0,1.163236 c -0.1481939,0.186335 -0.1431132,0.38094 -0.1374593,0.554488 0.00549,0.168333 0.00967,0.301432 -0.1286744,0.441317 -0.13834999,0.139886 -0.26965751,0.135776 -0.43614905,0.130225 -0.11239253,-0.0037 -0.23389939,-0.0025 -0.35605062,0.03721 v 0.539501 c 0.016391,-0.0247 0.0317032,-0.049 0.0563273,-0.0739 0.13837402,-0.139916 0.26963269,-0.135748 0.43614909,-0.130224 0.17708766,0.0059 0.37627418,0.01042 0.56585698,-0.154513 z m 32.2791663,0.01137 c -0.0194,0.09906 -0.01745,0.196703 -0.01447,0.288354 0.0055,0.168337 0.0096,0.301433 -0.128674,0.441317 -0.138346,0.139921 -0.269659,0.135255 -0.436149,0.129708 -0.150148,-0.0049 -0.316401,-0.0085 -0.479041,0.09043 v 1.251603 c 0.05356,-0.136232 0.05473,-0.272596 0.05064,-0.397909 -0.0055,-0.168331 -0.0097,-0.301406 0.128674,-0.441316 0.138379,-0.139907 0.270147,-0.135234 0.436666,-0.129708 0.139073,0.0046 0.291335,0.0076 0.44235,-0.07028 z m 0,1.789555 c -0.09624,0.02464 -0.193562,0.07108 -0.287837,0.166398 -5.64e-4,5.63e-4 -9.51e-4,10e-4 -0.0016,0.0015 -0.20136,0.203592 -0.194344,0.421189 -0.188102,0.612883 0.0055,0.168363 0.0097,0.301404 -0.128674,0.441316 -0.138345,0.139895 -0.270172,0.135778 -0.436666,0.130225 -0.005,-1.67e-4 -0.01044,1.64e-4 -0.0155,0 v 0.367419 c 0.04707,-0.0031 0.09601,-0.0033 0.148828,-0.0016 0.18963,0.0063 0.404316,0.01392 0.605648,-0.189652 0.201361,-0.20359 0.194321,-0.421164 0.188102,-0.612883 -0.0053,-0.16124 -0.0055,-0.290231 0.115755,-0.423747 z m -32.2791663,0.23616 c -0.1354106,0.01086 -0.275918,0.04963 -0.41082767,0.186035 -5.517e-4,5.54e-4 -0.00105,0.001 -0.00155,0.0016 -0.2013593,0.203589 -0.19434871,0.420673 -0.18810222,0.612366 0.00546,0.168361 0.009704,0.301406 -0.12867431,0.441317 -0.10721588,0.108418 -0.2106843,0.130011 -0.32917888,0.131775 v 0.363802 c 0.008812,2.68e-4 0.0168264,2.17e-4 0.0258382,5.17e-4 0.18962936,0.0063 0.40483335,0.01339 0.60616455,-0.19017 0.20136003,-0.203588 0.19380523,-0.421164 0.18758543,-0.612882 -0.00548,-0.168339 -0.00919,-0.300887 0.1291911,-0.4408 0.036822,-0.03723 0.072966,-0.06318 0.1095541,-0.08268 z M 33.602083,25.26099 c -0.04772,0.0033 -0.09729,0.0039 -0.150895,0.0021 -0.189566,-0.0063 -0.404806,-0.01395 -0.606164,0.189653 -0.201329,0.203568 -0.193832,0.421194 -0.187586,0.612882 0.0052,0.160372 0.0056,0.288446 -0.113688,0.421163 v 0.495061 c 0.0945,-0.025 0.189656,-0.0709 0.282153,-0.164331 h 5.17e-4 c 0.0017,-0.0016 0.0035,-0.0036 0.0052,-0.0052 0.20133,-0.203568 0.193828,-0.421191 0.187585,-0.612883 -0.0055,-0.168332 -0.0096,-0.300916 0.128674,-0.4408 0.138376,-0.139916 0.269637,-0.13574 0.43615,-0.130224 0.0059,1.95e-4 0.01218,-1.91e-4 0.01809,0 z M 1.3229167,25.489917 c -0.084684,0.02974 -0.1721782,0.03128 -0.2733684,0.02791 -0.18956614,-0.0063 -0.40480604,-0.01343 -0.60616451,0.19017 -0.12143557,0.122794 -0.16320961,0.249984 -0.17880046,0.374137 v 1.109493 c 0.0537195,-0.02816 0.10714211,-0.06574 0.15968018,-0.118856 l -5.1677e-4,-5.17e-4 c 0.001828,-0.0018 0.003873,-0.0029 0.005684,-0.0047 0.20132397,-0.203576 0.19383045,-0.42119 0.18758545,-0.612882 -0.00549,-0.168332 -0.009675,-0.300914 0.12867432,-0.4408 0.13837436,-0.139892 0.26963099,-0.13575 0.43614909,-0.130225 0.045562,0.0015 0.093104,0.0029 0.1410767,0.0016 z m 32.2791663,1.07487 c -0.05564,0.137895 -0.05684,0.276286 -0.05271,0.403076 0.0055,0.168332 0.0096,0.300915 -0.128674,0.4408 -0.138348,0.139886 -0.269658,0.135776 -0.436149,0.130225 -0.138388,-0.0046 -0.290555,-0.0079 -0.4408,0.06873 v 1.113111 c 0.0097,-0.08028 0.01071,-0.159807 0.0083,-0.234611 -0.0055,-0.168338 -0.0097,-0.301404 0.128675,-0.441317 0.138376,-0.139918 0.270159,-0.135734 0.436665,-0.130225 0.152021,0.0051 0.320156,0.0088 0.484725,-0.09405 z m -32.2791663,0.05943 c -0.1871529,0.19942 -0.1817983,0.411217 -0.1756999,0.598413 0.00549,0.168331 0.00967,0.300915 -0.1286743,0.4408 -0.13834815,0.139887 -0.26965698,0.135776 -0.43614911,0.130224 -0.10081445,-0.0034 -0.20851812,-0.0046 -0.31781006,0.02325 v 0.502295 c 0.005738,-0.0064 0.00815,-0.01273 0.0144694,-0.01912 0.13837551,-0.139915 0.26963785,-0.135743 0.43614909,-0.130224 0.18963111,0.0063 0.40480798,0.01343 0.60616458,-0.19017 5.49e-4,-5.39e-4 0.00104,-0.001 0.00155,-0.0015 z m 32.2791663,1.835547 c -0.108697,0.02094 -0.219083,0.06804 -0.326078,0.176216 -0.0018,0.0017 -0.0038,0.0034 -0.0057,0.0052 -0.201356,0.203589 -0.194347,0.420675 -0.188103,0.612366 0.0055,0.168362 0.0097,0.30192 -0.128674,0.441833 -0.130682,0.132131 -0.256069,0.134445 -0.409794,0.129708 v 0.364319 c 0.03425,-4.95e-4 0.06917,3.15e-4 0.106453,0.0016 0.189632,0.0063 0.404321,0.01339 0.605648,-0.190169 0.201363,-0.203592 0.19432,-0.420647 0.188102,-0.612366 -0.0055,-0.168332 -0.0097,-0.301407 0.128675,-0.441317 0.0098,-0.01 0.01966,-0.01419 0.02945,-0.02274 z M 1.3229167,28.700057 c -0.1468639,0.0061 -0.3013166,0.0413 -0.44906823,0.190686 -0.00183,0.0018 -0.003824,0.0039 -0.005684,0.0057 -0.201358,0.203589 -0.1943474,0.420675 -0.18810221,0.612366 0.00546,0.168361 0.009704,0.301404 -0.12867432,0.441317 -0.0941921,0.09523 -0.18573785,0.121605 -0.2868042,0.128157 v 0.36742 c 0.18574246,0.006 0.39380928,0.0083 0.5896281,-0.189653 0.20136076,-0.20359 0.19431966,-0.421164 0.18810216,-0.612882 -0.00549,-0.168332 -0.0097,-0.301404 0.1286744,-0.441317 0.050807,-0.05137 0.1008944,-0.07913 0.1519287,-0.0987 z m 32.2791663,2.019515 c -0.06063,0.0086 -0.123499,0.009 -0.19327,0.0067 -0.18959,-0.0063 -0.404288,-0.0129 -0.605647,0.190686 -0.201329,0.203568 -0.194862,0.420158 -0.188619,0.611849 0.0048,0.147592 0.0034,0.268424 -0.08888,0.390157 -0.05239,0.243114 -0.215753,0.443845 -0.434599,0.54777 0.02919,-1.4e-5 0.05904,5.12e-4 0.09043,0.0016 0.189502,0.0063 0.403856,0.01312 0.605131,-0.190169 h 5.17e-4 c 6.77e-4,-5.87e-4 0.0015,-0.0015 0.0021,-0.0021 0.20133,-0.203568 0.193827,-0.420674 0.187586,-0.612366 -0.0055,-0.168336 -0.0096,-0.301433 0.128674,-0.441316 0.138374,-0.139916 0.270154,-0.135228 0.436666,-0.129708 0.01943,6.45e-4 0.04003,7.8e-5 0.05994,5.17e-4 z M 1.3229167,30.93868 c -0.09761,0.04777 -0.1980458,0.04681 -0.315743,0.04289 -0.18959042,-0.0063 -0.40428851,-0.01341 -0.60564782,0.19017 -0.0695044,0.07028 -0.1084483,0.142562 -0.13694255,0.214457 v 1.157552 c 0,0.02757 0.002084,0.05462 0.004134,0.08165 0.039769,-0.02517 0.0793043,-0.05458 0.11833903,-0.09405 0.20132251,-0.203577 0.19434739,-0.420673 0.18810221,-0.612366 -0.005489,-0.168335 -0.009676,-0.301431 0.12867432,-0.441317 0.13837396,-0.139916 0.27015205,-0.135746 0.43666591,-0.130224 0.058681,0.002 0.1200688,0.0016 0.1824178,-0.0026 z m 32.2791663,0.999422 c -0.103727,0.16731 -0.100123,0.338367 -0.09508,0.492993 0.0055,0.168335 0.01019,0.301435 -0.128158,0.441317 -7.09e-4,7.3e-4 -0.0013,0.0014 -0.0021,0.0021 -0.01657,0.01673 -0.03323,0.03099 -0.04961,0.04393 -0.119948,0.09292 -0.239313,0.08857 -0.38499,0.08372 -0.189623,-0.0062 -0.404318,-0.01288 -0.605647,0.190686 -7.12e-4,7.27e-4 -0.0015,0.0015 -0.0021,0.0021 -0.132262,0.133727 -0.171201,0.272794 -0.182934,0.40721 h 0.392224 c 0.0054,0 0.01063,-9.53e-4 0.01602,-0.001 0.01878,-0.03354 0.04357,-0.06698 0.077,-0.100769 7.12e-4,-7.29e-4 0.0013,-0.0014 0.0021,-0.0021 0.01653,-0.01657 0.03318,-0.03122 0.04961,-0.04392 0.120164,-0.09282 0.238738,-0.08908 0.384473,-0.08423 0.04221,0.0014 0.08592,0.0024 0.130224,0.0016 0.243121,-0.193586 0.398942,-0.491523 0.398942,-0.827856 z m -32.2352414,0.07131 c -0.02459,0.01879 -0.049632,0.03954 -0.073897,0.06408 -0.2013364,0.203559 -0.1943467,0.420673 -0.1881022,0.612366 0.00549,0.168332 0.010193,0.301433 -0.12815753,0.441317 -0.13775174,0.139281 -0.26912764,0.135735 -0.4345988,0.130225 0.13911556,0.152221 0.32166278,0.263333 0.52916663,0.313675 0.070178,-0.02878 0.1402363,-0.06816 0.2087728,-0.137459 0.2013365,-0.203561 0.1938697,-0.420635 0.1875855,-0.612366 -0.00549,-0.168335 -0.00917,-0.300916 0.1291911,-0.4408 0.00624,-0.0063 0.012389,-0.0087 0.018603,-0.01447 -0.1133493,-0.09223 -0.199973,-0.215281 -0.2485635,-0.356564 z m 30.4508544,0.530717 c -0.02243,0.0019 -0.04476,0.0036 -0.0677,0.0036 h -0.457853 c -0.04008,0.124035 -0.04196,0.246979 -0.03824,0.361218 0.0055,0.168363 0.01022,0.301406 -0.128157,0.441317 -0.13835,0.139886 -0.270179,0.135774 -0.436666,0.130225 -0.166666,-0.0055 -0.352922,-0.01138 -0.532267,0.125573 h 1.314131 c 0.155164,-0.188855 0.150926,-0.386615 0.145211,-0.562756 -0.0055,-0.168333 -0.0097,-0.300889 0.128674,-0.4408 7.11e-4,-7.28e-4 0.0013,-0.0014 0.0021,-0.0021 0.01653,-0.01658 0.03318,-0.03122 0.04961,-0.04393 0.007,-0.0054 0.01414,-0.0076 0.02119,-0.0124 z m -28.5073037,0.0036 c -0.019359,0.03737 -0.045005,0.07456 -0.082166,0.112138 -0.1383255,0.139885 -0.269657,0.135774 -0.4361491,0.130224 -0.189589,-0.0063 -0.4048052,-0.01393 -0.6061645,0.189653 -0.2013285,0.203568 -0.1938295,0.421193 -0.1875855,0.612882 1.529e-4,0.0047 -1.477e-4,0.0088 0,0.01344 h 0.359668 c 0.00312,-0.114556 0.0273,-0.215283 0.1307414,-0.319877 0.1383747,-0.139917 0.2696345,-0.135745 0.4361491,-0.130224 0.1896285,0.0063 0.4043169,0.01339 0.6056478,-0.19017 0.1358218,-0.137325 0.1740851,-0.280326 0.1844848,-0.418062 z m 1.091923,0 c -0.1639918,0.191982 -0.15932,0.393772 -0.153479,0.573092 0.00546,0.168363 0.00919,0.300887 -0.1291911,0.4408 -0.019147,0.01936 -0.037864,0.03022 -0.056844,0.04444 h 0.5136637 c 0.036376,-0.120431 0.037704,-0.239962 0.034107,-0.350883 -0.00549,-0.168333 -0.0097,-0.301405 0.1286743,-0.441316 0.1383761,-0.139916 0.2696358,-0.135743 0.4361491,-0.130225 0.1702664,0.0057 0.361196,0.01034 0.5441528,-0.135909 z m 2.1011637,0 c 1.949e-4,0.03199 5.459e-4,0.06425 0.00155,0.09508 0.00549,0.168333 0.00916,0.301431 -0.1291911,0.441316 -0.138343,0.139894 -0.2696539,0.135778 -0.4361491,0.130225 -0.189522,-0.0062 -0.4049137,-0.01362 -0.6061645,0.189652 -0.00176,0.0017 -0.00345,0.0034 -0.00517,0.0052 -0.063868,0.06458 -0.1021604,0.130771 -0.1307413,0.196887 h 0.6340698 c 0.07479,-0.01902 0.1531288,-0.01791 0.2413289,-0.01499 0.1895383,0.0063 0.4043738,0.01312 0.6056478,-0.190169 h 5.168e-4 c 0.00174,-0.0017 0.00344,-0.0035 0.00517,-0.0052 0.2013299,-0.203568 0.1938703,-0.42115 0.1875855,-0.612882 -0.0028,-0.08581 -0.00464,-0.162139 0.011885,-0.235128 z m 2.1812622,0 c -0.015721,0.02299 -0.029285,0.04608 -0.052193,0.06925 -0.1383569,0.139878 -0.2706937,0.135254 -0.4371826,0.129708 -0.1895764,-0.0063 -0.4037731,-0.0129 -0.605131,0.190686 -0.2013293,0.203569 -0.1943465,0.420156 -0.1881022,0.611849 6.479e-4,0.01987 1.315e-4,0.03788 5.167e-4,0.05684 h 0.3601848 c -0.00115,-0.132125 0.013406,-0.245697 0.129191,-0.362768 0.138374,-0.139915 0.2701522,-0.135228 0.4366659,-0.129708 0.1896281,0.0063 0.4048321,0.01339 0.6061645,-0.190169 0.1218609,-0.123211 0.1632905,-0.251075 0.1788005,-0.375688 z m 1.0857219,0 c -0.1287638,0.178669 -0.1232227,0.36389 -0.1178223,0.529683 0.0055,0.168364 0.00972,0.301406 -0.1286743,0.441317 -0.040926,0.04138 -0.081134,0.06748 -0.1219564,0.08733 h 0.5632731 c 0.051846,-0.134717 0.053632,-0.269818 0.04961,-0.393774 -0.0055,-0.168334 -0.01018,-0.301403 0.128157,-0.441317 0.138374,-0.139916 0.270154,-0.135229 0.436666,-0.129708 0.151873,0.005 0.31982,0.0091 0.484208,-0.09353 z m 2.1337199,0 c 4.32e-4,0.01869 -7.8e-5,0.03806 5.17e-4,0.05633 0.0055,0.168331 0.0096,0.301433 -0.128675,0.441317 -0.138343,0.139895 -0.270175,0.135773 -0.436665,0.130225 -0.189616,-0.0062 -0.404316,-0.01339 -0.605648,0.190169 -5.51e-4,5.56e-4 -0.0011,0.0011 -0.0016,0.0016 -0.07752,0.07838 -0.118085,0.158594 -0.145727,0.238745 h 0.547253 c 0.106221,-0.0635 0.214244,-0.06216 0.343132,-0.05788 0.189627,0.0063 0.404806,0.01394 0.606164,-0.189653 5.03e-4,-5.06e-4 5.34e-4,-10e-4 10e-4,-0.0016 0.201324,-0.203576 0.194383,-0.421154 0.188102,-0.612883 -0.0023,-0.071 -0.002,-0.134875 0.0067,-0.19637 z m 2.151807,0 c -0.0087,0.0103 -0.01302,0.02065 -0.02325,0.03101 -0.138357,0.139878 -0.270175,0.135255 -0.436666,0.129708 -0.189585,-0.0063 -0.404807,-0.01342 -0.606164,0.190169 -0.20133,0.203569 -0.193831,0.420673 -0.187586,0.612366 0.0011,0.03323 0.0011,0.06426 10e-4,0.09508 h 0.360185 c -0.004,-0.149269 0.0023,-0.272681 0.129191,-0.401009 0.138373,-0.139914 0.269631,-0.13575 0.436149,-0.130224 0.189628,0.0063 0.404835,0.0134 0.606164,-0.19017 0.109161,-0.110369 0.154732,-0.224698 0.174667,-0.33693 z m 1.090889,0 c -0.102491,0.166696 -0.09907,0.336899 -0.09405,0.490926 0.0055,0.168367 0.0097,0.301922 -0.128674,0.441834 -0.08728,0.08825 -0.17266,0.116258 -0.2651,0.125573 h 0.691947 c 0.0692,-0.14767 0.06797,-0.296645 0.06356,-0.432531 -0.0055,-0.168338 -0.0097,-0.300889 0.128674,-0.4408 0.138373,-0.139915 0.269631,-0.13575 0.436149,-0.130225 0.126662,0.0042 0.26481,0.0033 0.40256,-0.05478 z m 2.161108,0 c 1.31e-4,0.004 -1.31e-4,0.0084 0,0.0124 0.0056,0.168309 0.0096,0.301947 -0.128674,0.441834 -0.138361,0.13989 -0.269664,0.135252 -0.436149,0.129708 -0.189575,-0.0063 -0.404918,-0.0131 -0.606164,0.190169 -0.0017,0.0017 -0.0034,0.0035 -0.0052,0.0052 -0.09052,0.09153 -0.135406,0.185562 -0.160714,0.279052 h 0.500745 c 0.125208,-0.105152 0.247737,-0.107378 0.399459,-0.102319 0.18959,0.0063 0.404805,0.01393 0.606164,-0.189653 l -5.17e-4,-5.16e-4 c 0.0018,-0.0018 0.0038,-0.0029 0.0057,-0.0047 0.201329,-0.203569 0.193832,-0.421193 0.187585,-0.612883 -0.0018,-0.05267 -0.0013,-0.101308 0.0016,-0.148311 z m 2.09858,0 c -0.129908,0.117069 -0.255781,0.116856 -0.412894,0.111621 -0.189665,-0.0062 -0.404806,-0.01342 -0.606165,0.190169 -0.201329,0.203567 -0.194345,0.421193 -0.188102,0.612883 0.0017,0.05093 0.0019,0.09805 -5.17e-4,0.14366 h 0.362769 c -9.8e-5,-0.003 9.8e-5,-0.0063 0,-0.0093 -0.0055,-0.168334 -0.0096,-0.301434 0.128674,-0.441317 0.138373,-0.139916 0.26963,-0.135233 0.436149,-0.129708 0.18963,0.0063 0.404317,0.01339 0.605648,-0.190169 0.09335,-0.09438 0.139193,-0.191485 0.163814,-0.287838 z m 1.111044,0 c -0.07433,0.151015 -0.07119,0.303352 -0.06666,0.44235 0.0055,0.16835 0.0097,0.301403 -0.128674,0.441317 -0.138498,0.140003 -0.270181,0.135764 -0.436666,0.130225 -0.118362,-0.0038 -0.24655,-0.0023 -0.375171,0.04444 h 1.213879 c 0.09634,-0.16355 0.09275,-0.330096 0.08785,-0.481107 -0.0055,-0.16833 -0.0097,-0.301403 0.128675,-0.441317 0.138376,-0.139917 0.269635,-0.135745 0.436149,-0.130225 0.06642,0.0022 0.136774,0.001 0.207739,-0.0057 z m 2.185396,0 c 0.0044,0.153408 2.01e-4,0.279431 -0.129191,0.410311 -0.138162,0.139757 -0.269137,0.13526 -0.435632,0.129708 -0.189577,-0.0063 -0.404834,-0.01339 -0.606165,0.190169 -5.52e-4,5.57e-4 -10e-4,0.001 -0.0015,0.0016 -0.105925,0.107098 -0.153169,0.217563 -0.17415,0.326595 h 0.470256 c 0.0048,-0.0052 0.0067,-0.0103 0.01189,-0.0155 0.138375,-0.139915 0.269636,-0.135745 0.436149,-0.130224 0.18963,0.0063 0.404806,0.01394 0.606165,-0.189653 5.63e-4,-5.64e-4 0.0011,-0.0011 0.0016,-0.0016 0.201328,-0.203567 0.19387,-0.42115 0.187586,-0.612882 -0.0012,-0.03809 -0.0021,-0.07355 -0.0016,-0.108521 z m 2.054138,0 c -0.11287,0.07669 -0.226306,0.07743 -0.363285,0.07286 -0.189587,-0.0063 -0.40429,-0.01342 -0.605648,0.190169 -0.201328,0.203567 -0.194346,0.420675 -0.188102,0.612366 0.0021,0.06578 10e-4,0.125418 -0.0057,0.182934 h 0.367937 c -4.08e-4,-0.01585 -1.1e-5,-0.03253 -5.17e-4,-0.04806 -0.0055,-0.168332 -0.0097,-0.300917 0.128674,-0.4408 0.138376,-0.139905 0.269636,-0.135739 0.436149,-0.130224 0.189629,0.0063 0.404833,0.01339 0.606165,-0.19017 0.08086,-0.08176 0.122196,-0.165399 0.149345,-0.24908 z m 1.1467,0 c -0.0563,0.138406 -0.05737,0.276848 -0.05323,0.40411 0.0055,0.168362 0.0092,0.301408 -0.129191,0.441316 -0.138342,0.139895 -0.269142,0.135257 -0.435632,0.129708 -0.146642,-0.0049 -0.308646,-0.0088 -0.467672,0.0832 h 1.282093 c 0.121962,-0.175847 0.117424,-0.35742 0.112138,-0.520381 -0.0055,-0.168332 -0.0097,-0.300889 0.128674,-0.4408 0.04948,-0.05003 0.09871,-0.07741 0.148311,-0.09715 z m 2.204,0 c 0.0015,0.134374 -0.01242,0.249304 -0.129708,0.367936 -0.138348,0.139886 -0.269659,0.135776 -0.436149,0.130225 -0.189615,-0.0062 -0.404832,-0.01391 -0.606164,0.189652 v 5.17e-4 c -0.0018,0.0017 -0.0034,0.003 -0.0052,0.0047 -0.118419,0.119729 -0.16153,0.244062 -0.178284,0.365352 h 0.444418 c 0.01348,-0.01804 0.02336,-0.03608 0.04134,-0.05426 0.138373,-0.139915 0.269642,-0.135735 0.436149,-0.130225 0.18963,0.0063 0.404807,0.01394 0.606164,-0.189652 0.0018,-0.0017 0.0034,-0.0035 0.0052,-0.0052 0.20133,-0.203568 0.194389,-0.421149 0.188102,-0.612882 -7.55e-4,-0.02312 -6.86e-4,-0.04426 -0.001,-0.06615 z m 1.973523,0 c -0.08784,0.03339 -0.178611,0.03451 -0.283704,0.03101 -0.189588,-0.0063 -0.404292,-0.0129 -0.605647,0.190686 -0.201325,0.203577 -0.194863,0.420674 -0.188619,0.612366 0.0027,0.08163 0.0046,0.154436 -0.0093,0.224275 h 0.372587 c -2.41e-4,-0.03038 -7.8e-5,-0.06111 -0.001,-0.09043 -0.0055,-0.168334 -0.0097,-0.300915 0.128675,-0.4408 0.138376,-0.139916 0.269635,-0.135744 0.436149,-0.130225 0.18963,0.0063 0.404831,0.0134 0.606164,-0.190169 0.06715,-0.0679 0.105283,-0.137222 0.133842,-0.206706 z" />
  </g>
  <g
     inkscape:label="D"
     inkscape:groupmode="layer"
     id="g4823"
     style="display:inline"
     sodipodi:insensitive="true">
    <path
       id="path4830"
       style="font-weight:bold;font-size:32.0447px;line-height:1.25;font-family:'Roboto Mono';-inkscape-font-specification:'Roboto Mono Bold';text-align:center;letter-spacing:0px;word-spacing:0px;text-anchor:middle;display:inline;fill:#2d3440;stroke-width:0.333798"
       inkscape:label="D_on"
       d="m 14.661449,2.0015021 c -0.01104,0.00814 -0.01647,0.016325 -0.02942,0.024508 -0.175032,0.1105713 -0.341807,0.1069114 -0.552435,0.1025259 -0.07644,-0.00159 -0.156617,-8.38e-4 -0.237973,0.00286 v 0.3222827 c 0.125679,-0.040356 0.25402,-0.039092 0.405991,-0.035945 0.239902,0.00503 0.512163,0.010588 0.766873,-0.1503169 0.138061,-0.087216 0.19574,-0.1772265 0.220974,-0.2659139 z m 1.380762,0 c -0.12966,0.1317628 -0.125332,0.2662976 -0.118986,0.3880464 0.007,0.1330796 0.01222,0.2386514 -0.162788,0.3492417 -0.175094,0.1105998 -0.341807,0.106911 -0.552436,0.1025259 -0.239862,-0.00499 -0.511477,-0.010608 -0.766219,0.1503169 -0.254709,0.1609058 -0.245874,0.3325172 -0.237972,0.4840367 0.007,0.1330572 0.01288,0.2382634 -0.162135,0.3488333 -0.06671,0.04213 -0.132865,0.064388 -0.200054,0.079652 v 0.317381 c 0.187983,-0.00424 0.386207,-0.031669 0.575318,-0.1511338 0.0023,-0.00141 0.0043,-0.00265 0.0065,-0.00408 0.254712,-0.1609069 0.245871,-0.3329246 0.237972,-0.4844452 -0.007,-0.1330571 -0.01217,-0.2378535 0.162789,-0.3484248 0.175062,-0.1105898 0.341116,-0.1072958 0.551782,-0.1029344 0.239851,0.005 0.512163,0.010589 0.766872,-0.1503169 0.254745,-0.1609272 0.245188,-0.3329051 0.237319,-0.4844452 -0.007,-0.1330564 -0.0116,-0.2378334 0.163442,-0.3484247 0.175064,-0.110591 0.341119,-0.1072981 0.551782,-0.1029344 0.159842,0.00333 0.333484,0.00265 0.507326,-0.042889 z m 2.728837,0 c 2.12e-4,0.00414 -2.15e-4,0.00856 0,0.012663 0.007,0.1330607 0.01288,0.2386722 -0.162135,0.3492417 -0.175031,0.1105716 -0.342461,0.1069091 -0.55309,0.1025259 -0.239945,-0.005 -0.511507,-0.010589 -0.766218,0.1503169 -7.12e-4,4.443e-4 -0.0012,7.67e-4 -0.002,0.00123 -0.254734,0.1609211 -0.245922,0.3324839 -0.237973,0.4840368 0.007,0.1330724 0.0129,0.2386503 -0.162135,0.3492417 -0.175,0.1105717 -0.341769,0.1069058 -0.552397,0.1025209 -0.239903,-0.00503 -0.51213,-0.010609 -0.766872,0.1503169 -0.254711,0.1609038 -0.245268,0.332485 -0.237318,0.4840367 0.007,0.1330568 0.01223,0.2382637 -0.162789,0.3488333 -0.17503,0.1105688 -0.341811,0.1073201 -0.552436,0.1029344 -0.240025,-0.00502 -0.511508,-0.010998 -0.766219,0.1499084 l 6.54e-4,4.084e-4 c -0.0023,0.00141 -0.0047,0.00254 -0.0072,0.00408 -4.57e-4,2.889e-4 -8.52e-4,5.281e-4 -0.0013,8.17e-4 V 5.857861 c 0.23681,-0.1576388 0.229964,-0.3250238 0.222282,-0.473008 -0.007,-0.1330561 -0.01225,-0.2378346 0.162789,-0.3484248 0.175069,-0.1105927 0.341068,-0.1077356 0.551782,-0.1033428 0.239852,0.005 0.512126,0.011019 0.766872,-0.1499085 v -4.084e-4 c 0.0023,-0.00141 0.0043,-0.00225 0.0065,-0.00368 0.254709,-0.1609053 0.245873,-0.3329254 0.237972,-0.4844452 -0.0071,-0.1330927 -0.01218,-0.2378552 0.162789,-0.3484247 0.175065,-0.110592 0.341072,-0.1073305 0.551782,-0.1029344 0.239854,0.005 0.51216,0.01059 0.766872,-0.1503169 0.254743,-0.1609259 0.245185,-0.3329048 0.237319,-0.4844452 -0.007,-0.1330557 -0.0116,-0.2378339 0.163442,-0.3484248 0.175064,-0.1105908 0.340419,-0.1073301 0.551129,-0.1029344 0.239855,0.005 0.51213,0.010609 0.766872,-0.1503169 6.36e-4,-3.994e-4 0.0013,-8.144e-4 0.002,-0.00123 0.25471,-0.1609048 0.245873,-0.3329259 0.237973,-0.4844452 -0.0023,-0.042721 -0.0014,-0.081675 0.0026,-0.1196817 z m 2.393452,0.084962 c -0.0814,0.00861 -0.165814,0.00809 -0.2602,0.00613 -0.239852,-0.005 -0.51213,-0.010608 -0.766872,0.1503169 -0.254709,0.1609055 -0.245218,0.3325176 -0.237319,0.4840367 0.007,0.1330619 0.01218,0.2382632 -0.162789,0.3488333 -0.17506,0.1105799 -0.341804,0.1073176 -0.552436,0.1029344 -0.239916,-0.00495 -0.512161,-0.010997 -0.766872,0.1499084 l 6.54e-4,4.085e-4 c -7.14e-4,4.451e-4 -0.002,4.142e-4 -0.0026,8.169e-4 -0.254774,0.1609405 -0.245217,0.3329244 -0.237319,0.4844452 0.007,0.1330934 0.01222,0.2382419 -0.162789,0.3488332 -0.175042,0.1105796 -0.341808,0.1073197 -0.552435,0.1029344 -0.239853,-0.005 -0.512129,-0.010609 -0.766873,0.1503169 -0.254709,0.1609047 -0.245219,0.3325175 -0.237318,0.4840368 0.007,0.1330559 0.01217,0.2382635 -0.162789,0.3488332 -0.175031,0.11057 -0.341154,0.1073197 -0.551782,0.1029344 -0.239731,-0.00499 -0.512267,-0.010761 -0.766872,0.1499084 -0.0022,0.00134 -0.0042,0.00307 -0.0065,0.00449 -0.254787,0.1609452 -0.245872,0.332925 -0.237972,0.4844452 0.007,0.133079 0.0123,0.2382413 -0.162789,0.3488332 -0.17503,0.1105695 -0.341155,0.1069111 -0.551782,0.1025259 -0.05742,-0.0012 -0.116724,-0.00224 -0.177172,-0.00123 v 0.3116625 c 0.106806,-0.023128 0.217699,-0.023882 0.345191,-0.02124 0.239906,0.00502 0.511509,0.010588 0.766218,-0.1503169 0.254743,-0.1609254 0.245843,-0.3324969 0.237973,-0.4840368 -0.007,-0.1330574 -0.0123,-0.2382422 0.162789,-0.3488332 0.175066,-0.1105933 0.341776,-0.107299 0.552435,-0.1029344 0.239901,0.00503 0.511479,0.010608 0.766219,-0.1503169 v -4.084e-4 c 0.0023,-0.00141 0.0043,-0.00225 0.0065,-0.00368 0.25471,-0.1609048 0.245871,-0.3329243 0.237972,-0.4844452 -0.007,-0.1330573 -0.01223,-0.2378556 0.162789,-0.3484247 0.175066,-0.1105924 0.341117,-0.1072984 0.551782,-0.1029344 0.239902,0.00503 0.512164,0.010588 0.766872,-0.1503169 0.254745,-0.1609268 0.24584,-0.3324966 0.237972,-0.4840368 -0.007,-0.1330575 -0.0123,-0.238243 0.162789,-0.3488332 0.175065,-0.110592 0.34112,-0.1072984 0.551782,-0.1029344 0.239904,0.00503 0.511476,0.010609 0.766219,-0.1503169 6.35e-4,-3.993e-4 0.0013,-8.144e-4 0.002,-0.00123 0.254712,-0.1609058 0.245869,-0.3325156 0.237972,-0.4840367 -0.007,-0.1330574 -0.01222,-0.2382614 0.162789,-0.3488333 0.175061,-0.1105893 0.341122,-0.1068916 0.551782,-0.1025259 0.239908,0.00502 0.512166,0.010586 0.766872,-0.1503169 0.01702,-0.010752 0.02971,-0.021838 0.04446,-0.032678 C 21.647573,2.1536467 21.408123,2.1162451 21.1645,2.0864641 Z m 1.584085,0.3210572 c 0.0025,0.1081836 -0.01362,0.2002768 -0.164096,0.2953237 -0.175029,0.1105689 -0.341807,0.1073195 -0.552436,0.1029344 -0.239858,-0.005 -0.512128,-0.011017 -0.766872,0.1499084 -0.254709,0.1609064 -0.245222,0.3329257 -0.237319,0.4844453 0.007,0.1330622 0.01218,0.238263 -0.162788,0.3488332 -0.17503,0.1105709 -0.341805,0.1069097 -0.552436,0.1025259 -0.239891,-0.00498 -0.512163,-0.010588 -0.766872,0.1503169 l 6.53e-4,4.085e-4 c -7.12e-4,4.457e-4 -0.0013,4.146e-4 -0.002,8.169e-4 -0.254741,0.1609243 -0.245873,0.3329239 -0.237972,0.4844452 0.007,0.1330968 0.01223,0.2382418 -0.162789,0.3488332 -0.174957,0.1105283 -0.341152,0.1069098 -0.551782,0.102526 -0.239853,-0.005 -0.512128,-0.010611 -0.766872,0.1503169 -0.254711,0.1609048 -0.245221,0.3325165 -0.237319,0.4840367 0.007,0.1330404 0.01228,0.238264 -0.162789,0.3488332 -0.175028,0.1105692 -0.341804,0.107318 -0.552435,0.1029344 -0.239902,-0.00496 -0.511508,-0.010997 -0.766219,0.1499085 -0.0023,0.00141 -0.0047,0.00295 -0.0072,0.00449 -0.254741,0.1609245 -0.245218,0.3329235 -0.237318,0.4844452 0.007,0.1330589 0.01226,0.2378328 -0.162789,0.3484248 -0.175029,0.1105705 -0.341156,0.1073206 -0.551782,0.1029344 -0.239831,-0.00502 -0.51213,-0.011016 -0.766872,0.1499084 -0.25471,0.1609052 -0.245873,0.3329249 -0.237973,0.4844452 0.007,0.1330575 0.01288,0.2382638 -0.162135,0.3488333 -8.99e-4,5.762e-4 -0.0016,6.721e-4 -0.0026,0.00123 -0.02094,0.01324 -0.04196,0.024547 -0.06276,0.03472 -0.02435,0.011748 -0.04882,0.018814 -0.07322,0.026959 v 0.3271843 c 0.170754,-0.00872 0.347683,-0.03959 0.517786,-0.1470491 10e-4,-6.197e-4 0.0017,-0.00108 0.0026,-0.00163 0.254713,-0.1609076 0.245872,-0.3325178 0.237973,-0.4840367 -0.007,-0.1330566 -0.01217,-0.2382638 0.162788,-0.3488332 0.175064,-0.1105908 0.341774,-0.1068892 0.552436,-0.102526 0.239853,0.00498 0.510859,0.010584 0.765565,-0.1503169 0.254745,-0.1609272 0.24649,-0.3324961 0.238626,-0.4840367 -0.007,-0.1330561 -0.0123,-0.2382425 0.162789,-0.3488332 0.175066,-0.1105935 0.34112,-0.1072967 0.551782,-0.1029344 0.239848,0.005 0.512125,0.010611 0.766872,-0.1503169 0.0023,-0.00141 0.0041,-0.00265 0.0065,-0.00408 0.25471,-0.1610873 0.245869,-0.3329252 0.237972,-0.4844452 -0.007,-0.1330565 -0.01288,-0.2382631 0.162135,-0.3488333 0.175064,-0.1105913 0.341774,-0.1068887 0.552436,-0.1025259 0.239848,0.005 0.511507,0.01059 0.766218,-0.1503169 0.254744,-0.1609263 0.245836,-0.3329047 0.237973,-0.4844452 -0.007,-0.1330558 -0.0123,-0.2382418 0.162789,-0.3488332 0.175063,-0.110591 0.341122,-0.1068904 0.551782,-0.102526 0.239853,0.005 0.51213,0.010608 0.766872,-0.1503168 6.39e-4,-4.011e-4 0.0013,-8.144e-4 0.002,-0.00123 0.254712,-0.1609044 0.245872,-0.3329266 0.237973,-0.4844452 -0.007,-0.1330608 -0.01288,-0.2378541 0.162135,-0.3484247 0.175061,-0.1105889 0.341774,-0.1072972 0.552435,-0.1029344 0.239851,0.005 0.51151,0.010588 0.766219,-0.1503169 0.207535,-0.1311043 0.238591,-0.2687509 0.23928,-0.3974412 -0.150157,-0.049371 -0.302041,-0.096201 -0.456986,-0.1392882 z m 1.159135,0.4003005 c -0.03703,0.089 -0.03696,0.1769576 -0.03269,0.2589698 0.007,0.1330764 0.01231,0.2382418 -0.162788,0.3488333 -0.175029,0.1105688 -0.341156,0.1073178 -0.551782,0.1029344 -0.239982,-0.00499 -0.512134,-0.011015 -0.766873,0.1499084 -0.254712,0.1609054 -0.24522,0.3329251 -0.237318,0.4844452 0.007,0.1330603 0.01217,0.2382629 -0.162789,0.3488332 -0.175155,0.1105816 -0.341805,0.1069078 -0.552436,0.1025259 -0.239871,-0.00498 -0.512163,-0.010587 -0.766872,0.1503169 l 6.54e-4,4.085e-4 c -7.15e-4,4.461e-4 -0.002,4.144e-4 -0.0026,8.17e-4 -0.254787,0.1609497 -0.245218,0.3329242 -0.237319,0.4844452 0.007,0.1330807 0.01221,0.2382423 -0.162789,0.3488332 -0.0016,0.00101 -0.003,0.00146 -0.0046,0.00245 0.194862,0.016428 0.383139,0.042037 0.565511,0.077201 0.07012,-0.1088504 0.07192,-0.21807 0.06668,-0.318198 -0.007,-0.1330563 -0.0123,-0.2382407 0.162788,-0.3488332 0.17506,-0.1105899 0.341122,-0.1068898 0.551782,-0.1025259 0.239904,0.00503 0.512128,0.011018 0.766873,-0.1499085 6.36e-4,-4.002e-4 0.0013,-0.00122 0.002,-0.00163 0.254711,-0.1609049 0.245269,-0.3324846 0.237319,-0.4840368 -0.007,-0.1330561 -0.01222,-0.2382625 0.162788,-0.3488332 0.17506,-0.110589 0.341121,-0.1072978 0.551782,-0.1029344 0.239904,0.00503 0.512165,0.010996 0.766873,-0.1499084 0.254743,-0.1609264 0.245892,-0.3328728 0.237972,-0.4844452 -0.0033,-0.062506 -0.0048,-0.1187789 0.01111,-0.1723743 -0.14484,-0.069589 -0.2931,-0.1346787 -0.443256,-0.1972909 z m 1.200322,0.60862 c -0.109361,0.1250151 -0.103425,0.2519456 -0.09741,0.3672144 0.007,0.1331024 0.01223,0.238243 -0.162789,0.3488332 -0.174963,0.1105354 -0.341807,0.1073198 -0.552435,0.1029344 -0.239859,-0.005 -0.511475,-0.010608 -0.766219,0.1503169 -0.254708,0.1609033 -0.245873,0.3325165 -0.237972,0.4840367 0.007,0.1330584 0.01217,0.238262 -0.162789,0.3488333 -0.175032,0.1105684 -0.341152,0.1069074 -0.551782,0.1025259 -0.23991,-0.00496 -0.511509,-0.010588 -0.766219,0.1503169 -7.12e-4,4.456e-4 -0.0012,7.669e-4 -0.002,0.00123 -0.201748,0.1274481 -0.236781,0.261625 -0.23928,0.3872294 0.158022,0.051578 0.310543,0.1099984 0.457639,0.1752335 -0.0053,-0.119522 0.002,-0.2182446 0.164097,-0.3206488 0.175059,-0.1105925 0.341116,-0.1073003 0.551782,-0.1029344 0.239903,0.00503 0.512127,0.011016 0.766872,-0.1499084 6.36e-4,-3.999e-4 0.0013,-8.144e-4 0.002,-0.00123 0.254711,-0.1609051 0.245218,-0.3329244 0.237319,-0.4844452 -0.007,-0.1330612 -0.01218,-0.2378534 0.162789,-0.3484248 0.175059,-0.1105873 0.341125,-0.1072947 0.551782,-0.1029344 0.239907,0.00503 0.512161,0.010588 0.766872,-0.1503169 0.254746,-0.1609239 0.245836,-0.3329021 0.237972,-0.4844452 -0.0044,-0.084154 -0.0029,-0.1565579 0.03923,-0.2267007 -0.100293,-0.065485 -0.202017,-0.1297071 -0.305964,-0.1907554 -0.03074,-0.019215 -0.06246,-0.037112 -0.09349,-0.05596 z m 1.097026,0.7626132 c -0.06981,0.1087136 -0.07124,0.2178329 -0.06603,0.3177895 0.007,0.1330806 0.0116,0.2378322 -0.163442,0.3484247 -0.175027,0.1105708 -0.341158,0.1073165 -0.551782,0.1029344 -0.239854,-0.005 -0.512133,-0.010607 -0.766873,0.1503169 -0.254713,0.1609052 -0.245219,0.3325166 -0.237318,0.4840368 0.007,0.1330577 0.01225,0.2382612 -0.162789,0.3488332 -0.175023,0.1105782 -0.341156,0.1073147 -0.551782,0.1029344 -0.239879,-0.00497 -0.512163,-0.010996 -0.766872,0.1499084 -7.14e-4,4.474e-4 -0.0012,7.67e-4 -0.002,0.00123 -0.124237,0.078483 -0.184329,0.159689 -0.213782,0.2397718 0.150543,0.1037542 0.29588,0.2151181 0.433449,0.3361707 -0.0063,-0.1258776 -0.0048,-0.2274001 0.163443,-0.3337199 0.17506,-0.1105936 0.34047,-0.1072935 0.551128,-0.1029344 0.239853,0.005 0.512131,0.010608 0.766872,-0.1503169 6.38e-4,-4.01e-4 0.0013,-8.143e-4 0.002,-0.00123 0.254708,-0.1609079 0.245869,-0.3329232 0.237972,-0.4844452 -0.007,-0.1330606 -0.01217,-0.2378533 0.162789,-0.3484247 0.175063,-0.1105862 0.341123,-0.1072942 0.551782,-0.1029344 0.239854,0.005 0.512163,0.010589 0.766872,-0.1503169 0.254746,-0.1609246 0.245185,-0.3329038 0.237319,-0.4844452 -0.0014,-0.026381 -0.0015,-0.050738 -0.0013,-0.075158 C 26.468812,4.4064628 26.338788,4.2905807 26.205068,4.179055 Z m 1.06303,1.0677401 c 0.0044,0.1154148 -0.0061,0.2114615 -0.164096,0.311254 -0.175021,0.1105776 -0.341158,0.1077249 -0.551782,0.1033428 -0.239901,-0.00502 -0.51213,-0.011016 -0.766872,0.1499085 -0.254702,0.1609148 -0.24522,0.3329255 -0.237319,0.4844452 0.007,0.1330572 0.01225,0.2378556 -0.162789,0.3484247 -0.175029,0.1105714 -0.341155,0.1073147 -0.551782,0.1029344 -0.239887,-0.00497 -0.512159,-0.010589 -0.766872,0.1503169 -7.1e-4,4.453e-4 -0.0012,7.67e-4 -0.002,0.00123 -0.254741,0.160924 -0.245218,0.3329249 -0.237319,0.4844453 0.0019,0.036989 0.0022,0.071204 0,0.1045682 0.108136,0.1388173 0.210665,0.282341 0.305965,0.4321611 0.172323,-0.14367 0.164531,-0.292928 0.157558,-0.4264425 -0.007,-0.1330573 -0.0123,-0.2382413 0.162789,-0.3488332 0.175067,-0.1105875 0.341118,-0.1073032 0.551782,-0.1029344 0.239907,0.00503 0.512129,0.011018 0.766872,-0.1499084 6.39e-4,-3.993e-4 0.0013,-8.144e-4 0.002,-0.00123 0.254699,-0.1609142 0.245919,-0.3328935 0.237972,-0.4844452 -0.007,-0.1330606 -0.01288,-0.2382636 0.162135,-0.3488332 0.175065,-0.1105874 0.341774,-0.1068879 0.552436,-0.1025259 0.239901,0.00503 0.512164,0.010586 0.766872,-0.1503169 0.05836,-0.036869 0.101483,-0.074275 0.13533,-0.1119207 -0.11607,-0.1518547 -0.236145,-0.3004504 -0.36088,-0.4456407 z m 0.819174,1.0967415 c -0.124071,0.038359 -0.251114,0.037835 -0.400761,0.03472 -0.239854,-0.005 -0.51148,-0.010606 -0.766218,0.1503169 -0.254708,0.1609091 -0.245875,0.3325148 -0.237973,0.4840367 0.007,0.1330572 0.01288,0.2382603 -0.162135,0.3488333 -0.175038,0.1105662 -0.342458,0.1069104 -0.553089,0.1025259 -0.239885,-0.00498 -0.510857,-0.01018 -0.765565,0.1507253 l -0.0026,0.00123 c -0.254742,0.1609241 -0.245871,0.3325179 -0.237972,0.4840367 0.007,0.1330811 0.01288,0.2382425 -0.162135,0.3488332 -0.105398,0.066576 -0.208903,0.089879 -0.319694,0.098441 0.04561,0.095886 0.08886,0.1940635 0.1301,0.2936899 0.186945,-0.00455 0.3847,-0.031963 0.572703,-0.1507254 0.254746,-0.1609242 0.245841,-0.332495 0.237972,-0.4840368 -0.007,-0.1330557 -0.0123,-0.2382423 0.162789,-0.3488332 0.175057,-0.1105931 0.341125,-0.1068915 0.551782,-0.1025259 0.239905,0.00498 0.511475,0.010611 0.766219,-0.1503169 6.36e-4,-4.015e-4 0.0013,-8.302e-4 0.002,-0.00123 0.254703,-0.1609155 0.24587,-0.3329244 0.237972,-0.4844452 -0.007,-0.1330566 -0.01222,-0.2378529 0.162789,-0.3484248 0.175054,-0.1105919 0.341119,-0.1072964 0.551782,-0.1029344 0.132806,0.00278 0.275655,0.00235 0.41972,-0.022874 -0.06072,-0.1016092 -0.12363,-0.2019541 -0.187632,-0.3010422 z M 18.269606,6.770796 c -0.08374,0.00959 -0.171286,0.00897 -0.268699,0.00694 -0.239872,-0.00498 -0.511511,-0.010996 -0.766219,0.1499084 -0.0023,0.00141 -0.0048,0.003 -0.0072,0.00449 -0.25474,0.1609243 -0.245873,0.3329253 -0.237973,0.4844452 0.007,0.1330787 0.0123,0.2382416 -0.162788,0.3488332 -0.175049,0.1105813 -0.341156,0.1069105 -0.551782,0.1025259 -0.239904,-0.00498 -0.51213,-0.011018 -0.766873,0.1499085 -0.25471,0.160906 -0.245219,0.3329248 -0.237318,0.4844452 0.007,0.1330605 0.01222,0.2382622 -0.162789,0.3488332 -9e-4,5.754e-4 -0.0016,0.00108 -0.0026,0.00163 -0.02094,0.01324 -0.04132,0.024563 -0.06211,0.03472 -0.15202,0.073337 -0.302759,0.070006 -0.487059,0.066172 -0.223615,-0.00457 -0.475165,-0.00784 -0.714571,0.121724 v 1.0620214 c 0.185762,-0.1469067 0.17909,-0.3002637 0.171942,-0.4370625 -0.007,-0.1330566 -0.01222,-0.2378332 0.162789,-0.3484248 8.99e-4,-5.762e-4 0.0016,-0.00108 0.0026,-0.00163 0.02094,-0.013082 0.04198,-0.024681 0.06276,-0.03472 0.152057,-0.073353 0.302075,-0.070398 0.486404,-0.066581 0.239905,0.00498 0.512134,0.011017 0.766873,-0.1499084 v -4.085e-4 c 0.001,-6.197e-4 0.0017,-0.00108 0.0026,-0.00163 0.254711,-0.160906 0.24527,-0.3324839 0.237319,-0.4840367 -0.007,-0.1330558 -0.01152,-0.2382646 0.163442,-0.3488332 0.175064,-0.1105916 0.341119,-0.1072969 0.551782,-0.1029344 0.239904,0.00498 0.511513,0.01099 0.766219,-0.1499085 0.254744,-0.1609275 0.245889,-0.3328711 0.237972,-0.4844452 -0.007,-0.1330557 -0.0123,-0.2382424 0.162789,-0.3488332 0.175066,-0.1105934 0.341774,-0.1068876 0.552435,-0.1025259 0.03243,6.795e-4 0.06655,5.24e-4 0.100027,8.169e-4 z M 28.518107,7.0979803 C 28.362508,7.1105313 28.202723,7.1444623 28.0487,7.2417617 27.793999,7.402677 27.802824,7.5738696 27.810728,7.72539 c 0.007,0.1330573 0.01288,0.2382638 -0.162135,0.3488332 -0.17503,0.1105718 -0.341806,0.1073158 -0.552436,0.1029344 -0.239887,-0.0049 -0.511511,-0.010585 -0.766219,0.1503169 -7.12e-4,4.45e-4 -0.0012,8.302e-4 -0.002,0.00123 -0.254745,0.160925 -0.245872,0.3325156 -0.237972,0.4840367 0.007,0.1330787 0.01222,0.2382417 -0.162789,0.3488333 -0.175031,0.1105741 -0.341807,0.106912 -0.552436,0.1025259 -0.184648,-0.00383 -0.388247,-0.00727 -0.588393,0.064538 0.04144,0.1303829 0.08026,0.2640875 0.115717,0.4011174 0.02304,-0.024426 0.04996,-0.048915 0.08891,-0.073525 0.17506,-0.1105947 0.341775,-0.1072968 0.552436,-0.1029344 0.239854,0.00498 0.511506,0.010587 0.766218,-0.1503169 0.254743,-0.1609257 0.24584,-0.3324966 0.237973,-0.4840367 -0.007,-0.1330582 -0.0123,-0.2382425 0.162788,-0.3488332 0.175058,-0.1105948 0.341116,-0.1068955 0.551782,-0.102526 0.239852,0.00498 0.512128,0.01061 0.766873,-0.1503169 6.35e-4,-4.023e-4 0.0013,-9.092e-4 0.002,-0.00123 0.254697,-0.1609147 0.245874,-0.3329231 0.237972,-0.4844452 -0.007,-0.1330565 -0.01222,-0.2378537 0.162789,-0.3484247 0.07689,-0.048575 0.15209,-0.072829 0.230127,-0.087004 -0.04629,-0.1005414 -0.09462,-0.1999808 -0.143829,-0.298183 z M 18.269606,7.7196712 c -0.157299,0.1397451 -0.15124,0.2842043 -0.144483,0.4137799 0.007,0.1330771 0.01223,0.2378356 -0.162789,0.3484248 -0.175029,0.1105718 -0.341145,0.1073221 -0.551782,0.1029344 -0.239853,-0.00498 -0.512128,-0.01061 -0.766872,0.1503169 -0.254708,0.1609076 -0.245872,0.332924 -0.237972,0.4844452 0.007,0.1330573 0.01288,0.2378545 -0.162135,0.3484247 -9.01e-4,5.747e-4 -0.0016,0.00108 -0.0026,0.00163 -0.02096,0.013224 -0.04204,0.024492 -0.06276,0.03472 -0.152026,0.073368 -0.302758,0.070414 -0.487059,0.066581 -0.239881,-0.0049 -0.511511,-0.010592 -0.766219,0.1503169 -9e-4,5.747e-4 -0.0017,0.00108 -0.0026,0.00163 -0.254745,0.160925 -0.245873,0.332519 -0.237972,0.484037 0.007,0.13308 0.01222,0.238243 -0.162789,0.348833 -0.175031,0.110574 -0.341148,0.107322 -0.551782,0.102935 -0.04138,-8.6e-4 -0.0851,-7.79e-4 -0.128139,-8.17e-4 v 0.299817 c 0.09175,-0.01354 0.188193,-0.01245 0.296158,-0.01021 0.239904,0.005 0.512158,0.01099 0.766872,-0.149909 0.254745,-0.160925 0.245187,-0.332905 0.237319,-0.484445 -0.007,-0.133056 -0.0123,-0.237834 0.162789,-0.348425 8.99e-4,-5.75e-4 0.0016,-0.0011 0.0026,-0.0016 0.02091,-0.01311 0.04206,-0.02463 0.06276,-0.03472 0.152021,-0.073361 0.302077,-0.070399 0.486405,-0.066581 0.239911,0.00498 0.512129,0.010608 0.766872,-0.1503168 9.02e-4,-5.747e-4 0.0017,-0.00108 0.0026,-0.00163 0.254699,-0.1609139 0.245221,-0.3329249 0.237319,-0.4844452 -0.007,-0.1330558 -0.0116,-0.2378562 0.163442,-0.3484248 0.17507,-0.1105884 0.341112,-0.1073071 0.551782,-0.1029344 0.216438,0.00449 0.458636,0.0085 0.691035,-0.108653 z m 10.709409,0.446866 c -0.04304,0.093205 -0.0437,0.1857209 -0.03923,0.2716324 0.007,0.1330613 0.01223,0.2382646 -0.162789,0.3488332 -0.175028,0.1105718 -0.341807,0.1069089 -0.552436,0.102526 -0.239892,-0.0049 -0.511508,-0.010594 -0.766219,0.1503169 -7.08e-4,4.434e-4 -0.0013,8.46e-4 -0.002,0.00123 -0.254742,0.1609242 -0.245875,0.3325155 -0.237972,0.4840367 0.007,0.1330795 0.01223,0.2386501 -0.162789,0.3492417 -0.175022,0.1105781 -0.341809,0.1069105 -0.552436,0.1025259 -0.239877,-0.00498 -0.511479,-0.010606 -0.766218,0.150317 -0.254713,0.160902 -0.245875,0.332517 -0.237973,0.484037 0.007,0.133057 0.01288,0.238264 -0.162135,0.348833 -0.06349,0.04011 -0.126434,0.06212 -0.190247,0.07761 0.01336,0.104272 0.02506,0.210109 0.0353,0.316564 0.175014,-0.0076 0.357525,-0.03713 0.532169,-0.147458 l -6.54e-4,-4.08e-4 c 0.0023,-0.0013 0.0049,-0.0023 0.0072,-0.0037 0.254707,-0.160908 0.245267,-0.332893 0.237319,-0.484445 -0.007,-0.133056 -0.01217,-0.237854 0.162789,-0.348425 0.175061,-0.110595 0.341116,-0.10771 0.551782,-0.103342 0.239903,0.005 0.51216,0.01099 0.766872,-0.149909 0.254744,-0.1609253 0.245888,-0.332873 0.237972,-0.4844455 -0.007,-0.1330566 -0.01225,-0.2382417 0.162789,-0.3488332 0.175058,-0.1105932 0.341118,-0.1068939 0.551782,-0.102526 0.239906,0.00498 0.512129,0.010617 0.766873,-0.1503169 6.38e-4,-3.999e-4 0.0013,-9.092e-4 0.002,-0.00123 0.03057,-0.019314 0.05698,-0.038833 0.08041,-0.058411 C 29.162938,8.6954172 29.074903,8.4278148 28.979015,8.1665372 Z M 18.269606,9.3024918 c -0.164457,0.010285 -0.334305,0.042304 -0.497519,0.1454152 -0.254707,0.1609084 -0.245872,0.3329256 -0.237972,0.4844452 0.007,0.1330578 0.01217,0.2378528 -0.162789,0.3484248 -9.01e-4,5.76e-4 -0.0016,0.0011 -0.0026,0.0016 -0.02096,0.01322 -0.04139,0.0245 -0.06211,0.03472 -0.152031,0.07338 -0.302757,0.07041 -0.487059,0.06658 -0.239782,-0.0049 -0.512266,-0.01036 -0.766872,0.150317 -8.58e-4,4.66e-4 -0.0018,0.0011 -0.0026,0.0016 -0.254687,0.160898 -0.245221,0.332927 -0.237319,0.484445 0.007,0.133081 0.0123,0.237834 -0.162789,0.348425 -0.175023,0.110578 -0.34115,0.107322 -0.551782,0.102935 -0.239888,-0.0049 -0.512128,-0.01061 -0.766872,0.150316 -0.254707,0.160908 -0.24587,0.332517 -0.237972,0.484037 0.007,0.133057 0.01217,0.237855 -0.162789,0.348425 -0.02991,0.01889 -0.05926,0.03048 -0.08891,0.0433 v 0.345565 c 0.154448,-0.01275 0.312866,-0.04614 0.465485,-0.142556 l -6.54e-4,-4.08e-4 c 0.0023,-0.0013 0.0049,-0.0027 0.0072,-0.0041 0.254749,-0.160928 0.245221,-0.332926 0.237319,-0.484445 -0.007,-0.133057 -0.01218,-0.237447 0.162789,-0.348016 0.175059,-0.110594 0.341116,-0.107708 0.551782,-0.103343 0.239854,0.005 0.512159,0.01099 0.766872,-0.149909 0.254742,-0.160925 0.245841,-0.332904 0.237972,-0.484445 -0.007,-0.133055 -0.0123,-0.237835 0.162789,-0.348425 0.001,-6.22e-4 0.0016,-0.0011 0.0026,-0.0016 0.02091,-0.01311 0.04205,-0.02462 0.06276,-0.03472 0.152018,-0.07336 0.302083,-0.0704 0.486405,-0.06658 0.23974,0.005 0.511582,0.01037 0.766219,-0.150317 h 6.53e-4 c 9.11e-4,-4.89e-4 0.0018,-0.0011 0.0026,-0.0016 0.254696,-0.160904 0.245216,-0.332515 0.237319,-0.484037 -0.007,-0.1330546 -0.01159,-0.2382642 0.163443,-0.3488329 0.03846,-0.024292 0.07625,-0.041043 0.114409,-0.055552 z m 10.899656,0.2998168 c -0.189613,0.00377 -0.390824,0.030458 -0.581856,0.1511338 -7.13e-4,4.458e-4 -0.0012,8.302e-4 -0.002,0.00123 -0.254745,0.160925 -0.245217,0.3329236 -0.237318,0.4844456 0.007,0.133072 0.0116,0.237834 -0.163443,0.348425 -0.175004,0.11056 -0.341146,0.107327 -0.551782,0.102934 -0.239854,-0.005 -0.512126,-0.01061 -0.766872,0.150317 -0.254697,0.160913 -0.245219,0.332517 -0.237319,0.484037 0.007,0.133057 0.01225,0.238264 -0.162789,0.348833 -0.175025,0.11057 -0.34115,0.107323 -0.551782,0.102934 -0.217286,-0.0044 -0.461053,-0.0083 -0.694303,0.110287 0.0084,0.180933 0.01308,0.364191 0.01308,0.551026 v 0.480769 c 0.138991,-0.134593 0.1346,-0.272919 0.128139,-0.397441 -0.007,-0.133057 -0.0123,-0.238243 0.162789,-0.348833 0.175063,-0.110597 0.34112,-0.106889 0.551782,-0.102526 0.239898,0.005 0.512131,0.01061 0.766872,-0.150317 l -6.54e-4,-4.09e-4 c 0.0023,-0.0013 0.0043,-0.0023 0.0065,-0.0037 0.254707,-0.160908 0.246523,-0.332924 0.238626,-0.484445 -0.007,-0.133057 -0.01288,-0.237856 0.162135,-0.348425 0.175062,-0.110596 0.341775,-0.107297 0.552436,-0.102934 0.239902,0.005 0.511506,0.01059 0.766218,-0.150317 0.254745,-0.160926 0.245841,-0.332904 0.237973,-0.484445 -0.007,-0.133057 -0.0123,-0.237834 0.162788,-0.3484254 0.159646,-0.100857 0.31349,-0.1063983 0.498827,-0.1033429 -0.02014,-0.097022 -0.04088,-0.1933713 -0.06342,-0.2891966 -0.01682,-2.815e-4 -0.03229,-4.66e-5 -0.04969,-4.085e-4 -0.05997,-0.00123 -0.121813,-0.00248 -0.185017,-0.00123 z m 0.418413,0.9672564 c -0.123228,0.129773 -0.118042,0.262095 -0.111795,0.381919 0.007,0.133061 0.01222,0.238242 -0.162789,0.348834 -0.175024,0.110579 -0.341152,0.107323 -0.551782,0.102934 -0.239854,-0.005 -0.51213,-0.01061 -0.766872,0.150317 -0.254697,0.160914 -0.245221,0.332518 -0.237319,0.484037 0.007,0.133057 0.0116,0.238263 -0.163442,0.348833 -0.17503,0.110571 -0.341151,0.107324 -0.551782,0.102934 -0.239881,-0.0049 -0.511509,-0.01099 -0.766219,0.149909 -0.0023,0.0013 -0.0047,0.003 -0.0072,0.0045 -0.254744,0.160925 -0.245218,0.332925 -0.237319,0.484445 0.007,0.13308 0.0116,0.237833 -0.163442,0.348425 -0.175028,0.11057 -0.341146,0.107322 -0.551782,0.102934 -0.02691,-5.58e-4 -0.05537,-6.5e-5 -0.08303,-4.08e-4 v 0.294915 c 0.07873,-0.0076 0.160725,-0.0076 0.251701,-0.0057 0.239856,0.005 0.511513,0.01099 0.766219,-0.149908 0.254747,-0.160926 0.245838,-0.332905 0.237972,-0.484445 -0.007,-0.133057 -0.0123,-0.238241 0.162789,-0.348833 0.175064,-0.110596 0.341777,-0.106889 0.552436,-0.102526 0.239853,0.005 0.511475,0.01061 0.766218,-0.150317 v -4.09e-4 c 0.0023,-0.0013 0.0043,-0.0023 0.0065,-0.0037 0.254707,-0.160908 0.245873,-0.332926 0.237973,-0.484445 -0.007,-0.133057 -0.01223,-0.237854 0.162788,-0.348425 0.175061,-0.110595 0.341121,-0.107297 0.551782,-0.102934 0.238444,0.005 0.508883,0.01016 0.762296,-0.147866 -0.0224,-0.331064 -0.0571,-0.656178 -0.103949,-0.975018 z m -11.318069,0.511404 c -0.09956,0.01819 -0.20287,0.01798 -0.321001,0.01552 -0.239998,-0.0049 -0.512818,-0.01058 -0.767526,0.150317 l 6.54e-4,4.09e-4 c -9.03e-4,5.73e-4 -0.0024,6.72e-4 -0.0033,0.0012 -0.254741,0.160923 -0.245215,0.332927 -0.237319,0.484445 0.007,0.133081 0.0123,0.237833 -0.162788,0.348425 -0.174978,0.110548 -0.341157,0.107317 -0.551782,0.102934 -0.239901,-0.005 -0.51213,-0.01062 -0.766873,0.150317 -0.254715,0.160902 -0.245869,0.332925 -0.237972,0.484445 0.007,0.133058 0.01217,0.237854 -0.162789,0.348425 -0.175029,0.110571 -0.341151,0.107323 -0.551782,0.102935 -0.208342,-0.0043 -0.441105,-0.0089 -0.665538,0.09517 v 1.042415 c 0.129881,-0.131897 0.124699,-0.266983 0.118333,-0.388863 -0.007,-0.133055 -0.0123,-0.23824 0.162788,-0.348833 0.17506,-0.110594 0.341776,-0.106891 0.552436,-0.102526 0.239901,0.005 0.512126,0.01061 0.766872,-0.150317 0.0023,-0.0013 0.0043,-0.0027 0.0065,-0.0041 0.254755,-0.160929 0.245269,-0.332895 0.237319,-0.484445 -0.007,-0.133056 -0.01223,-0.237855 0.162789,-0.348425 0.175059,-0.110594 0.34113,-0.107289 0.551781,-0.102934 0.239904,0.005 0.51216,0.01059 0.766873,-0.150317 0.254742,-0.160924 0.245893,-0.332875 0.237972,-0.484445 -0.007,-0.133055 -0.01288,-0.237836 0.162135,-0.348425 10e-4,-6.22e-4 0.0023,-0.0011 0.0033,-0.0016 0.02091,-0.0131 0.04132,-0.02467 0.06211,-0.03472 0.152022,-0.07336 0.302722,-0.07041 0.487059,-0.06658 0.04853,10e-4 0.09895,0.0011 0.149713,8.17e-4 z m 0,0.916607 c -0.20693,0.151571 -0.201551,0.310571 -0.194169,0.452176 0.007,0.133078 0.01293,0.238241 -0.162135,0.348833 -0.174978,0.110549 -0.341809,0.106912 -0.552436,0.102526 -0.239856,-0.005 -0.511475,-0.0102 -0.766219,0.150725 -0.254696,0.160915 -0.246525,0.332515 -0.238626,0.484037 0.007,0.133056 0.0129,0.238261 -0.162135,0.348833 -0.175022,0.110578 -0.341809,0.106913 -0.552436,0.102526 -0.239884,-0.0049 -0.511509,-0.01018 -0.766218,0.150726 -0.0023,0.0013 -0.0041,0.0027 -0.0065,0.0041 -0.254742,0.160926 -0.24587,0.332515 -0.237972,0.484037 0.007,0.133081 0.01224,0.238241 -0.162789,0.348833 -0.175027,0.11057 -0.341147,0.106916 -0.551782,0.102526 -0.02415,-5.01e-4 -0.04978,-6.9e-5 -0.07453,-4.08e-4 v 0.294506 c 0.0761,-0.0066 0.154862,-0.0067 0.242549,-0.0049 0.239905,0.005 0.511507,0.01058 0.766219,-0.150317 0.254743,-0.160925 0.245838,-0.332494 0.237972,-0.484037 -0.007,-0.133057 -0.01165,-0.238242 0.163442,-0.348833 0.175056,-0.110593 0.341126,-0.107298 0.551782,-0.102935 0.239903,0.005 0.511474,0.01061 0.766219,-0.150316 0.0023,-0.0013 0.0049,-0.0027 0.0072,-0.0041 0.2547,-0.160916 0.245873,-0.332518 0.237973,-0.484037 -0.007,-0.133057 -0.01288,-0.238264 0.162135,-0.348833 0.175062,-0.110595 0.341776,-0.107295 0.552436,-0.102934 0.231782,0.0048 0.492911,0.0087 0.740067,-0.136021 z m 11.43444,0.11723 c -0.189701,0.0038 -0.390144,0.03044 -0.581202,0.151134 -0.254704,0.160908 -0.24522,0.332927 -0.237318,0.484446 0.007,0.133056 0.01152,0.238262 -0.163443,0.348833 -0.175028,0.11057 -0.341147,0.106917 -0.551782,0.102526 -0.239887,-0.0049 -0.511509,-0.01099 -0.766218,0.149908 v 4.09e-4 c -0.0023,0.0013 -0.0048,0.0026 -0.0072,0.0041 -0.254742,0.160925 -0.245873,0.332926 -0.237972,0.484445 0.007,0.13308 0.0123,0.238243 -0.162789,0.348834 -0.175028,0.11057 -0.341155,0.106908 -0.551782,0.102526 -0.239902,-0.005 -0.512133,-0.01062 -0.766872,0.150317 -0.254708,0.160909 -0.245217,0.332924 -0.237319,0.484445 0.007,0.133056 0.01222,0.237852 -0.162789,0.348425 -8.98e-4,5.75e-4 -0.0016,0.0011 -0.0026,0.0016 -0.02096,0.01322 -0.04204,0.02449 -0.06276,0.03472 -0.0051,0.0024 -0.01,0.0034 -0.01504,0.0057 -0.0091,0.118675 -0.0202,0.2357 -0.03269,0.351284 0.165327,-0.01003 0.335967,-0.04182 0.500134,-0.145415 h 6.54e-4 c 8.57e-4,-4.66e-4 0.0018,-0.0011 0.0026,-0.0016 0.254713,-0.160962 0.245269,-0.332893 0.237319,-0.484445 -0.007,-0.133057 -0.01218,-0.238265 0.162788,-0.348834 0.175062,-0.110594 0.341123,-0.106888 0.551782,-0.102526 0.239903,0.005 0.512165,0.01099 0.766873,-0.149908 0.254746,-0.160926 0.245237,-0.332873 0.237318,-0.484445 -0.007,-0.133062 -0.0123,-0.238242 0.162789,-0.348833 0.175064,-0.110598 0.341778,-0.107296 0.552436,-0.102935 0.239788,0.005 0.51158,0.01037 0.766218,-0.150317 h 6.54e-4 c 0.0022,-0.0013 0.0044,-0.0028 0.0065,-0.0041 0.254708,-0.160909 0.245266,-0.332893 0.237318,-0.484446 -0.007,-0.133056 -0.01222,-0.237856 0.162789,-0.348424 0.07021,-0.04435 0.139678,-0.06712 0.210514,-0.0821 -2.91e-4,-0.10576 -0.0019,-0.210748 -0.0046,-0.315339 -0.0049,6.9e-5 -0.0095,-9.8e-5 -0.01438,0 z m -11.43444,1.50031 c -0.179303,0.0065 -0.366968,0.03606 -0.546552,0.1495 -0.254711,0.160901 -0.24587,0.332517 -0.237972,0.484037 0.007,0.133057 0.0129,0.237854 -0.162135,0.348425 -0.175039,0.110563 -0.342463,0.107319 -0.553089,0.102934 -0.239886,-0.0049 -0.510853,-0.01059 -0.765565,0.150317 -0.0023,0.0013 -0.0048,0.0027 -0.0072,0.0041 -0.254657,0.160837 -0.24587,0.332513 -0.237972,0.484036 0.007,0.133079 0.01288,0.238649 -0.162135,0.349242 -0.175069,0.110588 -0.341801,0.106505 -0.552436,0.102117 -0.239854,-0.005 -0.511475,-0.0102 -0.766218,0.150726 -0.254711,0.1609 -0.246527,0.332516 -0.238626,0.484037 0.007,0.133058 0.01288,0.238264 -0.162135,0.348833 -0.01207,0.0076 -0.02395,0.01099 -0.03596,0.01756 v 0.364764 c 0.138755,-0.01632 0.279978,-0.05348 0.416452,-0.139697 6.99e-4,-4.38e-4 0.0013,-4.24e-4 0.002,-8.17e-4 0.254704,-0.160907 0.245871,-0.332924 0.237972,-0.484445 -0.007,-0.133055 -0.01218,-0.237853 0.162789,-0.348425 0.175056,-0.110593 0.341124,-0.1073 0.551782,-0.102934 0.239854,0.005 0.511512,0.01059 0.766219,-0.150317 0.25478,-0.160951 0.245844,-0.332493 0.237972,-0.484037 -0.007,-0.133057 -0.0123,-0.238244 0.162789,-0.348833 0.175058,-0.110595 0.341779,-0.107296 0.552436,-0.102935 0.239853,0.005 0.511477,0.01061 0.766218,-0.150317 0.0023,-0.0013 0.0043,-0.0027 0.0065,-0.0041 0.2547,-0.160917 0.245874,-0.332924 0.237972,-0.484445 -0.007,-0.133055 -0.01222,-0.237853 0.162789,-0.348425 0.0548,-0.03462 0.109367,-0.05532 0.164096,-0.07107 z m 11.454053,0.265097 c -0.129492,0.04422 -0.261748,0.04125 -0.418413,0.03799 -0.239893,-0.0049 -0.511509,-0.01018 -0.766218,0.150725 -0.0023,0.0013 -0.0041,0.0031 -0.0065,0.0045 -0.254731,0.160929 -0.24653,0.332515 -0.238626,0.484037 0.007,0.133079 0.01292,0.237834 -0.162135,0.348425 -0.175023,0.110578 -0.341807,0.107316 -0.552436,0.102934 -0.239853,-0.005 -0.511478,-0.0106 -0.766219,0.150317 -0.254705,0.160909 -0.245874,0.332516 -0.237972,0.484037 0.007,0.133058 0.0129,0.238261 -0.162135,0.348833 -8.98e-4,5.76e-4 -0.0016,0.0011 -0.0026,0.0016 -0.02096,0.01322 -0.04204,0.02448 -0.06276,0.03472 -0.152019,0.07337 -0.302756,0.07001 -0.487059,0.06617 -0.240163,-0.0047 -0.512163,-0.01018 -0.766872,0.150725 l 6.54e-4,4.09e-4 c -10e-4,6.2e-4 -0.0024,0.0011 -0.0033,0.0016 -0.0025,0.0016 -0.004,0.0033 -0.0065,0.0049 -0.0028,0.01679 -0.0056,0.03393 -0.0085,0.05065 -0.06288,0.398255 -0.147353,0.772653 -0.252355,1.124109 0.08416,-0.02284 0.168209,-0.05306 0.250394,-0.104977 0.254743,-0.160925 0.245191,-0.332905 0.237318,-0.484445 -0.007,-0.133056 -0.01223,-0.238243 0.162789,-0.348834 9e-4,-5.76e-4 0.0016,-0.0011 0.0026,-0.0016 0.02091,-0.0131 0.04198,-0.02468 0.06276,-0.03472 0.152032,-0.07337 0.302729,-0.0704 0.487059,-0.06658 0.239909,0.005 0.511477,0.01102 0.766218,-0.149908 v -4.09e-4 c 9.03e-4,-5.74e-4 0.0024,-6.72e-4 0.0033,-0.0012 0.254706,-0.160907 0.24522,-0.332924 0.237319,-0.484446 -0.007,-0.133056 -0.01217,-0.238264 0.162789,-0.348833 0.17506,-0.110594 0.341125,-0.106888 0.551782,-0.102526 0.239905,0.005 0.512165,0.01099 0.766872,-0.149908 0.254746,-0.160925 0.245185,-0.332904 0.237319,-0.484445 -0.007,-0.133056 -0.0123,-0.238243 0.162788,-0.348834 0.175064,-0.110595 0.341777,-0.107297 0.552436,-0.102934 0.08214,0.0017 0.168569,7.41e-4 0.256278,-0.0041 z m -0.0065,0.874125 c -0.01662,0.0091 -0.03319,0.01695 -0.04969,0.02737 -0.0023,0.0013 -0.0048,0.003 -0.0072,0.0045 -0.254743,0.160924 -0.24587,0.332516 -0.237972,0.484037 0.007,0.133078 0.01288,0.238242 -0.162135,0.348833 -0.17503,0.110571 -0.341808,0.106907 -0.552436,0.102526 -0.239854,-0.005 -0.511477,-0.01061 -0.766218,0.150317 -0.25471,0.160909 -0.245875,0.332923 -0.237973,0.484445 0.007,0.133056 0.01223,0.237853 -0.162788,0.348425 -9.01e-4,5.74e-4 -0.0016,0.0011 -0.0026,0.0016 -0.02096,0.01322 -0.04204,0.02449 -0.06276,0.03472 -0.152023,0.07336 -0.302109,0.07041 -0.486405,0.06658 -0.239743,-0.0049 -0.512269,-0.01035 -0.766873,0.150317 -9.1e-4,4.89e-4 -0.0018,0.0011 -0.0026,0.0016 -0.254745,0.160926 -0.245874,0.332928 -0.237972,0.484445 0.007,0.133081 0.01288,0.237834 -0.162135,0.348425 -0.175031,0.110571 -0.3418,0.107325 -0.552436,0.102934 -0.19862,-0.0041 -0.418886,-0.0074 -0.633503,0.08251 -0.200125,0.482151 -0.434894,0.914259 -0.704764,1.295667 0.179658,-0.0064 0.367308,-0.03557 0.547205,-0.149092 h 6.54e-4 c 0.0022,-0.0013 0.0045,-0.0028 0.0065,-0.0041 0.254708,-0.160908 0.245876,-0.332516 0.237972,-0.484036 -0.007,-0.133057 -0.01291,-0.238262 0.162135,-0.348834 0.175057,-0.110593 0.341774,-0.106889 0.552436,-0.102525 0.239855,0.005 0.511503,0.01059 0.766218,-0.150317 0.254743,-0.160925 0.245839,-0.332908 0.237973,-0.484446 -0.007,-0.133058 -0.01293,-0.238241 0.162135,-0.348833 8.99e-4,-5.74e-4 0.0023,-0.0011 0.0033,-0.0016 0.02091,-0.0131 0.04131,-0.02426 0.06211,-0.03431 0.152032,-0.07337 0.303378,-0.07041 0.487712,-0.06658 0.239738,0.005 0.510926,0.01037 0.765565,-0.150317 h 6.54e-4 c 8.55e-4,-4.66e-4 0.0018,-0.0011 0.0026,-0.0016 0.2547,-0.160914 0.245873,-0.332517 0.237972,-0.484036 -0.007,-0.133061 -0.01288,-0.238264 0.162135,-0.348833 0.175061,-0.110595 0.341772,-0.107297 0.552436,-0.102935 0.238871,0.005 0.509147,0.01062 0.76295,-0.148274 0.04107,-0.361973 0.06698,-0.73149 0.0778,-1.108588 z m -11.447515,0.631086 c -0.114719,0.02945 -0.233074,0.03023 -0.370687,0.02737 -0.239784,-0.0049 -0.512269,-0.01035 -0.766873,0.150317 -0.0022,0.0013 -0.0043,0.0027 -0.0065,0.0041 -0.254745,0.160925 -0.245873,0.332516 -0.237973,0.484037 0.007,0.13308 0.01223,0.23865 -0.162789,0.349242 -0.175067,0.110618 -0.341157,0.106909 -0.551782,0.102526 -0.239904,-0.005 -0.51213,-0.01061 -0.766872,0.150317 -0.254703,0.160906 -0.245874,0.332516 -0.237972,0.484036 0.007,0.133058 0.01288,0.238671 -0.162135,0.349242 -0.174965,0.110458 -0.341805,0.106501 -0.552436,0.102118 -0.192021,-0.0039 -0.404119,-0.0066 -0.611929,0.07434 v 0.983187 c 0.06791,-0.107757 0.0699,-0.215811 0.06472,-0.31493 -0.007,-0.133057 -0.01225,-0.237833 0.162789,-0.348425 0.17506,-0.110595 0.341118,-0.107302 0.551782,-0.102934 0.239905,0.005 0.512129,0.01061 0.766873,-0.150317 6.98e-4,-4.39e-4 0.0013,-4.24e-4 0.002,-8.17e-4 0.254704,-0.160907 0.245265,-0.332894 0.237318,-0.484445 -0.007,-0.133059 -0.01159,-0.238263 0.163443,-0.348834 0.175057,-0.110593 0.340454,-0.107308 0.551128,-0.102934 0.239906,0.005 0.512163,0.01099 0.766873,-0.149909 0.254753,-0.160928 0.245893,-0.332873 0.237972,-0.484445 -0.007,-0.13305 -0.01225,-0.237832 0.162789,-0.348424 0.175063,-0.110588 0.34111,-0.107717 0.551782,-0.103343 0.06729,0.0014 0.137317,0.0017 0.208552,-4.09e-4 z m 0,0.88638 c -0.0028,0.0017 -0.0057,0.0027 -0.0085,0.0045 l 6.54e-4,4.09e-4 c -0.0023,0.0013 -0.0043,0.0023 -0.0065,0.0037 -0.254746,0.160926 -0.24587,0.332926 -0.237972,0.484445 0.0071,0.133066 0.01228,0.238239 -0.162789,0.348833 -0.175027,0.11057 -0.341147,0.106913 -0.551782,0.102526 -0.239845,-0.005 -0.512131,-0.01061 -0.766872,0.150317 -0.254704,0.160908 -0.245218,0.332926 -0.237319,0.484445 0.007,0.133055 0.01159,0.237853 -0.163442,0.348425 -0.175028,0.11056 -0.340496,0.10732 -0.551128,0.102934 -0.23985,-0.005 -0.512163,-0.01059 -0.766873,0.150317 -6.97e-4,4.4e-4 -0.0013,8.3e-4 -0.002,0.0012 -0.254746,0.160926 -0.245874,0.332927 -0.237972,0.484445 0.007,0.133082 0.01225,0.237833 -0.162789,0.348425 -0.175026,0.110574 -0.341151,0.107321 -0.551782,0.102934 -0.0068,-1.41e-4 -0.01409,1.38e-4 -0.02092,0 v 0.290422 c 0.05976,-0.0024 0.121218,-0.0026 0.188286,-0.0012 0.239904,0.005 0.512164,0.01059 0.766872,-0.150317 0.254746,-0.160926 0.24584,-0.332497 0.237973,-0.484037 -0.007,-0.133058 -0.0123,-0.238243 0.162788,-0.348833 0.175063,-0.110596 0.34178,-0.107297 0.552436,-0.102935 0.239905,0.005 0.511475,0.01061 0.766219,-0.150316 6.96e-4,-4.4e-4 6.79e-4,-4.29e-4 0.0013,-8.17e-4 0.254705,-0.160909 0.245872,-0.332924 0.237973,-0.484446 -0.007,-0.133056 -0.01152,-0.238261 0.163442,-0.348833 0.17506,-0.110594 0.341123,-0.106891 0.551782,-0.102526 0.239905,0.005 0.511511,0.01059 0.766219,-0.150317 0.01241,-0.0078 0.0215,-0.0158 0.03269,-0.02369 z m 11.289303,0.168698 c -0.161917,0.01096 -0.32841,0.04314 -0.48902,0.144598 -0.254716,0.160902 -0.245871,0.332514 -0.237972,0.484037 0.007,0.133057 0.01223,0.238261 -0.162789,0.348833 -9e-4,5.76e-4 -0.0016,0.0011 -0.0026,0.0016 -0.02096,0.01322 -0.04204,0.02449 -0.06276,0.03472 -0.152021,0.07336 -0.302761,0.07041 -0.487059,0.06658 -0.239971,-0.0049 -0.51151,-0.01059 -0.766219,0.150316 -0.001,6.21e-4 -0.0017,0.0011 -0.0026,0.0016 -0.254746,0.160926 -0.245874,0.332518 -0.237972,0.484037 0.007,0.13308 0.01222,0.238243 -0.162789,0.348833 -0.175032,0.110572 -0.341145,0.107325 -0.551782,0.102935 -0.239905,-0.005 -0.512131,-0.01061 -0.766872,0.150317 -0.254699,0.160915 -0.245873,0.332516 -0.237972,0.484036 0.007,0.133058 0.01288,0.237853 -0.162135,0.348425 -0.17503,0.110571 -0.341802,0.107323 -0.552436,0.102935 -0.239886,-0.0049 -0.511509,-0.01059 -0.766219,0.150316 -0.0023,0.0013 -0.0041,0.0027 -0.0065,0.0041 -0.254744,0.160925 -0.245875,0.332922 -0.237973,0.484445 0.007,0.133078 0.0123,0.238241 -0.162789,0.348834 -0.175027,0.110569 -0.341155,0.106907 -0.551782,0.102525 -0.239903,-0.005 -0.512131,-0.01061 -0.766872,0.150317 -0.254695,0.160913 -0.245873,0.332924 -0.237972,0.484446 0.007,0.133055 0.01217,0.237855 -0.162789,0.348424 -0.175031,0.110572 -0.341146,0.107322 -0.551782,0.102935 -0.240015,-0.0048 -0.512163,-0.01059 -0.766872,0.150317 -6.99e-4,4.39e-4 -8.02e-4,9.09e-4 -0.0013,0.0012 -0.254745,0.160925 -0.246532,0.332516 -0.238626,0.484037 0.007,0.133016 0.01289,0.238241 -0.162135,0.348833 -0.175171,0.110635 -0.341813,0.107314 -0.552436,0.102934 -0.239652,-0.0052 -0.511475,-0.01101 -0.766218,0.149909 -0.254705,0.160907 -0.245875,0.332925 -0.237973,0.484445 0.007,0.133059 0.01288,0.237855 -0.162135,0.348425 -0.175028,0.11057 -0.341798,0.107324 -0.552435,0.102934 -0.239914,-0.0049 -0.511511,-0.01059 -0.766219,0.150317 l -0.0065,0.0041 c -0.254743,0.160924 -0.245873,0.332922 -0.237972,0.484445 0.0019,0.0356 0.0024,0.06865 6.54e-4,0.100892 h 0.463523 c -0.0066,-0.128414 -0.0073,-0.231178 0.163442,-0.33903 0.17506,-0.110594 0.34111,-0.107309 0.551782,-0.102934 0.239906,0.005 0.511478,0.01102 0.766219,-0.149909 v -4.08e-4 c 0.0023,-0.0014 0.0048,-0.0027 0.0072,-0.0041 0.254706,-0.160908 0.245269,-0.332895 0.237319,-0.484445 -0.007,-0.13306 -0.0116,-0.237855 0.163442,-0.348425 0.175062,-0.110595 0.340464,-0.1073 0.551129,-0.102934 0.239902,0.005 0.512164,0.01099 0.766872,-0.149909 0.254747,-0.160926 0.245889,-0.332872 0.237972,-0.484445 -0.007,-0.133058 -0.01225,-0.238243 0.162789,-0.348833 0.175062,-0.110596 0.341115,-0.107302 0.551782,-0.102935 0.239902,0.005 0.512129,0.01062 0.766872,-0.150316 6.98e-4,-4.4e-4 0.0013,-4.28e-4 0.002,-8.17e-4 0.254704,-0.160908 0.245266,-0.332893 0.237318,-0.484446 -0.007,-0.133056 -0.01159,-0.237853 0.163443,-0.348424 0.175057,-0.110593 0.34046,-0.107302 0.551128,-0.102935 0.239904,0.005 0.512166,0.01058 0.766872,-0.150317 0.254749,-0.160925 0.245889,-0.332872 0.237973,-0.484445 -0.007,-0.133056 -0.01225,-0.237835 0.162789,-0.348425 0.175059,-0.110594 0.341106,-0.107308 0.551781,-0.102934 0.2399,0.005 0.512129,0.01061 0.766873,-0.150317 v -4.08e-4 c 0.0023,-0.0013 0.0043,-0.0023 0.0065,-0.0037 0.2547,-0.160914 0.245923,-0.332895 0.237972,-0.484445 -0.007,-0.133056 -0.01218,-0.237854 0.162789,-0.348425 0.17506,-0.110595 0.341121,-0.107294 0.551782,-0.102934 0.239901,0.005 0.512156,0.01059 0.766872,-0.150317 0.254742,-0.160924 0.245895,-0.332875 0.237972,-0.484445 -0.007,-0.133057 -0.0123,-0.237835 0.162789,-0.348425 8.97e-4,-5.77e-4 0.0016,-0.0011 0.0026,-0.0016 0.02091,-0.0131 0.04131,-0.02468 0.06211,-0.03472 0.152022,-0.07337 0.302726,-0.0704 0.487059,-0.06658 0.239901,0.005 0.512129,0.01102 0.766872,-0.149909 l -6.53e-4,-4.08e-4 c 0.001,-6.19e-4 0.0024,-0.0011 0.0033,-0.0016 0.25471,-0.160909 0.245267,-0.332486 0.237318,-0.484037 -0.007,-0.133057 -0.01225,-0.237855 0.162789,-0.348424 0.0107,-0.0068 0.02139,-0.0096 0.03204,-0.01552 0.02427,-0.124129 0.0469,-0.249336 0.06734,-0.375384 z m -11.313492,1.487239 c -0.1896,0.0038 -0.3908,0.03085 -0.581856,0.151542 -0.254706,0.160909 -0.24522,0.332926 -0.237318,0.484445 0.007,0.133057 0.0116,0.237855 -0.163443,0.348425 -0.175032,0.110571 -0.340497,0.10732 -0.551128,0.102934 -0.23989,-0.0049 -0.512164,-0.01099 -0.766872,0.149909 -7e-4,4.38e-4 -0.0013,8.3e-4 -0.002,0.0012 -0.254744,0.160925 -0.245876,0.332926 -0.237972,0.484445 0.007,0.13311 0.01226,0.238241 -0.162789,0.348833 -0.1749,0.110551 -0.340495,0.106914 -0.551128,0.102526 -0.239858,-0.005 -0.512129,-0.01061 -0.766872,0.150317 -0.25471,0.160905 -0.245873,0.332925 -0.237973,0.484446 0.0066,0.126947 0.0071,0.228241 -0.144483,0.333311 v 0.391314 c 0.119471,-0.01981 0.239949,-0.05605 0.356959,-0.129893 h 6.53e-4 c 0.0022,-0.0013 0.0043,-0.0027 0.0065,-0.0041 0.254698,-0.160915 0.245874,-0.332927 0.237972,-0.484445 -0.007,-0.13306 -0.01217,-0.237856 0.162789,-0.348425 0.175061,-0.110595 0.341114,-0.107303 0.551782,-0.102934 0.239855,0.005 0.512161,0.01058 0.766873,-0.150317 0.254746,-0.160926 0.245838,-0.332497 0.237972,-0.484037 -0.007,-0.133063 -0.01231,-0.238243 0.162789,-0.348833 0.175061,-0.110596 0.341123,-0.107298 0.551782,-0.102935 0.239853,0.005 0.512126,0.01061 0.766872,-0.150317 6.93e-4,-4.39e-4 6.79e-4,-8.37e-4 0.0013,-0.0012 0.254703,-0.160906 0.24587,-0.332517 0.237972,-0.484037 -0.007,-0.133058 -0.01217,-0.238263 0.162789,-0.348833 0.07431,-0.04695 0.147764,-0.07049 0.222935,-0.08496 v -0.307986 c -0.0082,8.2e-5 -0.01592,-5.72e-4 -0.02419,-4.08e-4 z m 10.821857,0.308803 c -0.189492,0.0039 -0.390931,0.03106 -0.581856,0.151542 -8.54e-4,4.65e-4 -0.0019,0.0012 -0.0026,0.0016 -0.254743,0.160923 -0.245874,0.332518 -0.237972,0.484037 0.007,0.133078 0.01292,0.238241 -0.162135,0.348833 -0.175022,0.110578 -0.341807,0.106909 -0.552436,0.102526 -0.239853,-0.005 -0.511476,-0.0102 -0.766218,0.150725 -0.2547,0.160916 -0.245871,0.332516 -0.237973,0.484037 0.007,0.133056 0.01291,0.238261 -0.162135,0.348833 -0.175012,0.110574 -0.341814,0.106907 -0.552435,0.102526 -0.239888,-0.0049 -0.512162,-0.01059 -0.766873,0.150317 l 6.54e-4,4.08e-4 c -0.0023,0.0013 -0.0048,0.0023 -0.0072,0.0037 -0.254747,0.160926 -0.24587,0.332924 -0.237972,0.484445 0.007,0.133079 0.01288,0.238242 -0.162135,0.348833 -0.175026,0.11057 -0.341799,0.106915 -0.552436,0.102526 -0.239851,-0.005 -0.511478,-0.01061 -0.766218,0.150317 -0.254715,0.1609 -0.245872,0.332926 -0.237973,0.484445 0.0071,0.132944 0.01216,0.238263 -0.162788,0.348833 -0.175025,0.110578 -0.341154,0.106501 -0.551782,0.102118 -0.239889,-0.0049 -0.512165,-0.01018 -0.766873,0.150725 -6.97e-4,4.39e-4 -0.0013,4.22e-4 -0.002,8.17e-4 -0.254745,0.160924 -0.245872,0.332928 -0.237972,0.484445 0.0068,0.133132 0.01287,0.238242 -0.162135,0.348834 -0.175008,0.110571 -0.341793,0.106919 -0.552436,0.102525 -0.239852,-0.005 -0.511475,-0.01061 -0.766219,0.150317 -0.254709,0.160901 -0.245871,0.332927 -0.237972,0.484446 0.007,0.133053 0.01289,0.238263 -0.162135,0.348833 -0.175029,0.110571 -0.342459,0.106909 -0.553089,0.102526 -0.132935,-0.0028 -0.275458,-0.0024 -0.419721,0.02287 h 1.453331 c 0.01401,0 0.02786,-3.6e-4 0.04184,-4.08e-4 0.109264,-0.12507 0.103423,-0.252355 0.09741,-0.367623 -0.007,-0.133058 -0.01225,-0.237856 0.162789,-0.348425 0.17506,-0.110594 0.341114,-0.107302 0.551782,-0.102934 0.239902,0.005 0.512164,0.01058 0.766872,-0.150317 0.254748,-0.160927 0.245185,-0.332495 0.237319,-0.484037 -0.007,-0.133057 -0.0116,-0.238242 0.163442,-0.348833 0.175061,-0.110596 0.341119,-0.107303 0.551782,-0.102935 0.239907,0.005 0.512127,0.01061 0.766873,-0.150317 6.95e-4,-4.38e-4 0.0013,-4.28e-4 0.002,-8.17e-4 0.254713,-0.160901 0.24522,-0.332922 0.237319,-0.484445 -0.007,-0.133056 -0.0116,-0.238263 0.163442,-0.348833 0.175056,-0.110592 0.340465,-0.106892 0.551128,-0.102526 0.239906,0.005 0.512165,0.01059 0.766873,-0.150317 0.254744,-0.160926 0.245839,-0.332902 0.237972,-0.484445 -0.007,-0.133058 -0.01225,-0.237834 0.162789,-0.348425 0.175058,-0.110594 0.341116,-0.10771 0.551782,-0.103343 0.239905,0.005 0.512125,0.01102 0.766872,-0.149908 v -4.09e-4 c 0.0023,-0.0013 0.0043,-0.0023 0.0065,-0.0037 0.254698,-0.160914 0.245875,-0.332925 0.237972,-0.484445 -0.007,-0.133056 -0.01217,-0.237854 0.162789,-0.348425 0.175061,-0.110594 0.341108,-0.107308 0.551782,-0.102934 0.239902,0.005 0.51216,0.01059 0.766872,-0.150317 0.254746,-0.160926 0.245189,-0.332904 0.237319,-0.484445 -0.007,-0.133058 -0.0123,-0.237833 0.162789,-0.348425 9e-4,-5.75e-4 0.0016,-0.0011 0.0026,-0.0016 0.02091,-0.0131 0.04198,-0.02469 0.06276,-0.03472 0.02517,-0.01215 0.0506,-0.01947 0.07584,-0.02778 0.03953,-0.108901 0.07719,-0.219086 0.113756,-0.330452 -0.01809,8e-6 -0.03529,-7.83e-4 -0.05361,-4.08e-4 z m -10.797668,1.447617 c -0.133163,0.04858 -0.268142,0.04706 -0.429527,0.04371 -0.239779,-0.005 -0.512161,-0.011 -0.766872,0.149908 -6.98e-4,4.38e-4 -0.0013,8.31e-4 -0.002,0.0012 -0.254746,0.160924 -0.245221,0.332928 -0.237319,0.484445 0.0071,0.133038 0.01222,0.238242 -0.162789,0.348833 -0.174957,0.11053 -0.341152,0.106912 -0.551782,0.102526 -0.240049,-0.0049 -0.512128,-0.0106 -0.766872,0.150317 -0.254704,0.160909 -0.245872,0.332927 -0.237972,0.484445 0.007,0.133058 0.01288,0.237855 -0.162135,0.348425 -0.174999,0.110597 -0.341798,0.107325 -0.552436,0.102935 -0.175514,-0.0035 -0.367897,-0.0061 -0.55832,0.05473 v 0.886788 c 0.01392,-0.06587 0.01497,-0.13069 0.01177,-0.19198 -0.007,-0.133062 -0.01288,-0.238243 0.162135,-0.348834 0.17506,-0.110594 0.341778,-0.106888 0.552436,-0.102526 0.239792,0.005 0.511583,0.01037 0.766218,-0.150316 h 6.54e-4 c 0.0022,-0.0013 0.0043,-0.0027 0.0065,-0.0041 0.254699,-0.160915 0.245272,-0.332893 0.237318,-0.484445 -0.007,-0.13306 -0.01218,-0.238265 0.162789,-0.348834 0.175059,-0.110594 0.341769,-0.106894 0.552436,-0.102525 0.239905,0.005 0.511509,0.01058 0.766219,-0.150317 0.254747,-0.160926 0.245889,-0.332873 0.237972,-0.484446 -0.007,-0.133057 -0.0123,-0.238242 0.162789,-0.348833 0.175061,-0.110595 0.341779,-0.106887 0.552435,-0.102526 0.08214,0.0017 0.168569,7.41e-4 0.256278,-0.0041 z M 28.33309,20.04729 c -0.146685,0.0146 -0.296012,0.04956 -0.440641,0.140923 -0.254698,0.160915 -0.245873,0.332924 -0.237972,0.484445 0.007,0.133058 0.0129,0.237857 -0.162135,0.348425 -0.175029,0.11057 -0.341809,0.10732 -0.552436,0.102934 -0.23972,-0.005 -0.51227,-0.01035 -0.766873,0.150317 -0.0022,0.0013 -0.0044,0.0028 -0.0065,0.0041 -0.254743,0.160926 -0.245871,0.332517 -0.237973,0.484037 0.007,0.133081 0.01288,0.23865 -0.162135,0.349242 -0.175019,0.110576 -0.341795,0.106508 -0.552435,0.102117 -0.239855,-0.005 -0.511481,-0.01061 -0.766219,0.150317 -0.254697,0.160914 -0.245873,0.332924 -0.237972,0.484445 0.007,0.133093 0.01227,0.238264 -0.162789,0.348834 -0.175025,0.110579 -0.341146,0.106915 -0.551782,0.102526 -0.239801,-0.0049 -0.512161,-0.01059 -0.766872,0.150317 l 6.53e-4,4.08e-4 c -6.97e-4,4.39e-4 -0.002,4.19e-4 -0.0026,8.17e-4 -0.254803,0.160951 -0.245874,0.332926 -0.237972,0.484445 0.007,0.133081 0.01288,0.23824 -0.162135,0.348833 -0.175111,0.11061 -0.341803,0.106915 -0.552436,0.102526 -0.239728,-0.005 -0.511474,-0.01061 -0.766218,0.150317 -0.111563,0.07048 -0.167383,0.142822 -0.200054,0.214855 0.698604,-0.05095 1.365381,-0.165186 1.999883,-0.34434 0.01832,-0.0051 0.03601,-0.01113 0.05426,-0.01634 0.09373,-0.119245 0.09003,-0.239875 0.08434,-0.34965 -0.007,-0.133051 -0.01159,-0.237832 0.163443,-0.348424 0.175059,-0.110595 0.341115,-0.107302 0.551782,-0.102935 0.239854,0.005 0.51213,0.01061 0.766872,-0.150317 6.98e-4,-4.4e-4 6.8e-4,-4.29e-4 0.0013,-8.17e-4 0.254705,-0.160908 0.245871,-0.332925 0.237973,-0.484445 -0.007,-0.133057 -0.01225,-0.238264 0.162789,-0.348833 0.175059,-0.110594 0.341126,-0.107297 0.551782,-0.102935 0.239855,0.005 0.512163,0.01099 0.766872,-0.149908 0.254743,-0.160925 0.245188,-0.332905 0.237318,-0.484445 -0.007,-0.133057 -0.0116,-0.237834 0.163443,-0.348425 0.175059,-0.110594 0.34111,-0.107716 0.551782,-0.103343 0.0939,0.002 0.193361,0.0013 0.294197,-0.0065 0.345261,-0.429305 0.657229,-0.88418 0.937506,-1.363473 z m -10.063484,0.514264 c -0.0205,0.0108 -0.04115,0.02067 -0.06145,0.03349 -6.98e-4,4.4e-4 -0.0013,8.31e-4 -0.002,0.0012 -0.254936,0.161031 -0.246531,0.332926 -0.238627,0.484445 0.007,0.13308 0.01288,0.238242 -0.162134,0.348833 -0.174669,0.1104 -0.341156,0.106502 -0.551782,0.102118 -0.23966,-0.0051 -0.511476,-0.0102 -0.766219,0.150725 -0.254703,0.160909 -0.246527,0.332517 -0.238626,0.484037 0.007,0.133058 0.01291,0.237855 -0.162135,0.348425 -0.175025,0.110573 -0.341812,0.107317 -0.552436,0.102934 -0.239888,-0.0049 -0.51151,-0.01059 -0.766219,0.150317 -0.0023,0.0014 -0.0041,0.003 -0.0065,0.0045 -0.254744,0.160924 -0.245871,0.332108 -0.237973,0.483628 0.0072,0.132973 0.01296,0.238651 -0.162135,0.349242 -0.165516,0.104561 -0.324927,0.106677 -0.519747,0.102934 v 0.287972 c 0.04352,-4.06e-4 0.08793,2.44e-4 0.135331,0.0012 0.239903,0.005 0.512164,0.01099 0.766872,-0.149908 0.254746,-0.160925 0.245186,-0.332905 0.237319,-0.484446 -0.007,-0.133059 -0.01223,-0.238242 0.162788,-0.348833 0.175058,-0.110594 0.341778,-0.107297 0.552436,-0.102934 0.239905,0.005 0.511476,0.01102 0.766219,-0.149909 v -4.08e-4 c 0.0023,-0.0014 0.0048,-0.0023 0.0072,-0.0037 0.254707,-0.160909 0.245219,-0.332927 0.237319,-0.484445 -0.007,-0.13306 -0.01217,-0.238264 0.162788,-0.348834 0.175062,-0.110594 0.341114,-0.106893 0.551782,-0.102526 0.239905,0.005 0.512162,0.01058 0.766873,-0.150317 0.221903,-0.140179 0.242594,-0.287859 0.23928,-0.423991 h -0.158213 z m 2.951772,0.547758 c -0.396059,0.09138 -0.816514,0.138063 -1.261776,0.138063 h -0.508633 c -0.03842,0.01709 -0.07659,0.03656 -0.11441,0.06045 -6.97e-4,4.41e-4 -0.0013,8.31e-4 -0.002,0.0012 -0.254745,0.160925 -0.245876,0.332518 -0.237972,0.484036 0.007,0.133045 0.01223,0.238241 -0.162789,0.348834 -0.17491,0.110519 -0.340502,0.106909 -0.551128,0.102526 -0.239922,-0.0049 -0.512128,-0.01061 -0.766873,0.150317 -0.254705,0.160907 -0.245873,0.332926 -0.237972,0.484445 0.007,0.13306 0.01222,0.237853 -0.162789,0.348424 -0.174947,0.110533 -0.341156,0.107315 -0.551782,0.102935 -0.239895,-0.0049 -0.511508,-0.01059 -0.766219,0.150317 -0.0023,0.0014 -0.0048,0.0027 -0.0072,0.0041 -0.254745,0.160926 -0.245872,0.332926 -0.237972,0.484446 0.007,0.133082 0.0123,0.237832 -0.162789,0.348424 -0.175033,0.110571 -0.341146,0.107324 -0.551782,0.102935 -0.239849,-0.005 -0.512131,-0.01061 -0.766872,0.150317 -0.110191,0.06961 -0.164548,0.141288 -0.197439,0.212404 h 0.641348 c 0.15339,-0.07527 0.305091,-0.07656 0.490982,-0.07271 0.239854,0.005 0.512165,0.01018 0.766872,-0.150725 0.254746,-0.160925 0.245839,-0.332496 0.237973,-0.484037 -0.007,-0.133056 -0.01292,-0.238241 0.162135,-0.348833 0.175058,-0.110594 0.341771,-0.10689 0.552435,-0.102526 0.239856,0.005 0.511478,0.01061 0.766219,-0.150317 v -4.08e-4 c 0.0023,-0.0014 0.0041,-0.0023 0.0065,-0.0037 0.2547,-0.160914 0.245874,-0.332925 0.237972,-0.484446 -0.007,-0.133055 -0.01223,-0.238263 0.162789,-0.348833 0.175061,-0.110594 0.34112,-0.106888 0.551782,-0.102526 0.239853,0.005 0.512165,0.01059 0.766872,-0.150317 0.254747,-0.160925 0.245839,-0.332904 0.237972,-0.484445 -0.007,-0.133057 -0.01288,-0.238243 0.162135,-0.348833 0.175063,-0.110596 0.342428,-0.106891 0.55309,-0.102526 0.239854,0.005 0.511475,0.01061 0.766218,-0.150317 l -6.53e-4,-4.08e-4 c 6.98e-4,-4.39e-4 0.0015,-4.73e-4 0.002,-8.17e-4 0.09739,-0.06153 0.148591,-0.124522 0.183709,-0.187488 z m 4.550241,1.87406 c -0.06617,0.02213 -0.132021,0.05222 -0.196785,0.09313 -0.08267,0.05222 -0.131171,0.105447 -0.167365,0.158894 0.123316,-0.08058 0.24485,-0.164213 0.36415,-0.252025 z"
       transform="scale(0.79043734,1.2651224)" />
  </g>
</svg>
